%TF.GenerationSoftware,KiCad,Pcbnew,9.0.7*%
%TF.CreationDate,2026-05-10T22:03:56+02:00*%
%TF.ProjectId,SolarPowerSupply,536f6c61-7250-46f7-9765-72537570706c,rev?*%
%TF.SameCoordinates,Original*%
%TF.FileFunction,Legend,Top*%
%TF.FilePolarity,Positive*%
%FSLAX46Y46*%
G04 Gerber Fmt 4.6, Leading zero omitted, Abs format (unit mm)*
G04 Created by KiCad (PCBNEW 9.0.7) date 2026-05-10 22:03:56*
%MOMM*%
%LPD*%
G01*
G04 APERTURE LIST*
%ADD10C,0.100000*%
%ADD11C,0.152400*%
%ADD12C,0.120000*%
G04 APERTURE END LIST*
D10*
X175656265Y-82992133D02*
X176265789Y-82992133D01*
X175961027Y-83296895D02*
X175961027Y-82687371D01*
X207756265Y-79192133D02*
X208365789Y-79192133D01*
X176756265Y-78492133D02*
X177365789Y-78492133D01*
X175756265Y-90192133D02*
X176365789Y-90192133D01*
X176656265Y-73092133D02*
X177265789Y-73092133D01*
X176961027Y-73396895D02*
X176961027Y-72787371D01*
X207656265Y-82492133D02*
X208265789Y-82492133D01*
X207961027Y-82796895D02*
X207961027Y-82187371D01*
X193290476Y-87264895D02*
X193290476Y-87912514D01*
X193290476Y-87912514D02*
X193328571Y-87988704D01*
X193328571Y-87988704D02*
X193366666Y-88026800D01*
X193366666Y-88026800D02*
X193442857Y-88064895D01*
X193442857Y-88064895D02*
X193595238Y-88064895D01*
X193595238Y-88064895D02*
X193671428Y-88026800D01*
X193671428Y-88026800D02*
X193709523Y-87988704D01*
X193709523Y-87988704D02*
X193747619Y-87912514D01*
X193747619Y-87912514D02*
X193747619Y-87264895D01*
X194547618Y-88064895D02*
X194090475Y-88064895D01*
X194319047Y-88064895D02*
X194319047Y-87264895D01*
X194319047Y-87264895D02*
X194242856Y-87379180D01*
X194242856Y-87379180D02*
X194166666Y-87455371D01*
X194166666Y-87455371D02*
X194090475Y-87493466D01*
X193609524Y-73564895D02*
X193609524Y-72764895D01*
X193609524Y-72764895D02*
X193800000Y-72764895D01*
X193800000Y-72764895D02*
X193914286Y-72802990D01*
X193914286Y-72802990D02*
X193990476Y-72879180D01*
X193990476Y-72879180D02*
X194028571Y-72955371D01*
X194028571Y-72955371D02*
X194066667Y-73107752D01*
X194066667Y-73107752D02*
X194066667Y-73222038D01*
X194066667Y-73222038D02*
X194028571Y-73374419D01*
X194028571Y-73374419D02*
X193990476Y-73450609D01*
X193990476Y-73450609D02*
X193914286Y-73526800D01*
X193914286Y-73526800D02*
X193800000Y-73564895D01*
X193800000Y-73564895D02*
X193609524Y-73564895D01*
X194828571Y-73564895D02*
X194371428Y-73564895D01*
X194600000Y-73564895D02*
X194600000Y-72764895D01*
X194600000Y-72764895D02*
X194523809Y-72879180D01*
X194523809Y-72879180D02*
X194447619Y-72955371D01*
X194447619Y-72955371D02*
X194371428Y-72993466D01*
X181369167Y-89874895D02*
X181102500Y-89493942D01*
X180912024Y-89874895D02*
X180912024Y-89074895D01*
X180912024Y-89074895D02*
X181216786Y-89074895D01*
X181216786Y-89074895D02*
X181292976Y-89112990D01*
X181292976Y-89112990D02*
X181331071Y-89151085D01*
X181331071Y-89151085D02*
X181369167Y-89227276D01*
X181369167Y-89227276D02*
X181369167Y-89341561D01*
X181369167Y-89341561D02*
X181331071Y-89417752D01*
X181331071Y-89417752D02*
X181292976Y-89455847D01*
X181292976Y-89455847D02*
X181216786Y-89493942D01*
X181216786Y-89493942D02*
X180912024Y-89493942D01*
X182054881Y-89341561D02*
X182054881Y-89874895D01*
X181864405Y-89036800D02*
X181673928Y-89608228D01*
X181673928Y-89608228D02*
X182169167Y-89608228D01*
X202899167Y-93138704D02*
X202861071Y-93176800D01*
X202861071Y-93176800D02*
X202746786Y-93214895D01*
X202746786Y-93214895D02*
X202670595Y-93214895D01*
X202670595Y-93214895D02*
X202556309Y-93176800D01*
X202556309Y-93176800D02*
X202480119Y-93100609D01*
X202480119Y-93100609D02*
X202442024Y-93024419D01*
X202442024Y-93024419D02*
X202403928Y-92872038D01*
X202403928Y-92872038D02*
X202403928Y-92757752D01*
X202403928Y-92757752D02*
X202442024Y-92605371D01*
X202442024Y-92605371D02*
X202480119Y-92529180D01*
X202480119Y-92529180D02*
X202556309Y-92452990D01*
X202556309Y-92452990D02*
X202670595Y-92414895D01*
X202670595Y-92414895D02*
X202746786Y-92414895D01*
X202746786Y-92414895D02*
X202861071Y-92452990D01*
X202861071Y-92452990D02*
X202899167Y-92491085D01*
X203165833Y-92414895D02*
X203661071Y-92414895D01*
X203661071Y-92414895D02*
X203394405Y-92719657D01*
X203394405Y-92719657D02*
X203508690Y-92719657D01*
X203508690Y-92719657D02*
X203584881Y-92757752D01*
X203584881Y-92757752D02*
X203622976Y-92795847D01*
X203622976Y-92795847D02*
X203661071Y-92872038D01*
X203661071Y-92872038D02*
X203661071Y-93062514D01*
X203661071Y-93062514D02*
X203622976Y-93138704D01*
X203622976Y-93138704D02*
X203584881Y-93176800D01*
X203584881Y-93176800D02*
X203508690Y-93214895D01*
X203508690Y-93214895D02*
X203280119Y-93214895D01*
X203280119Y-93214895D02*
X203203928Y-93176800D01*
X203203928Y-93176800D02*
X203165833Y-93138704D01*
X172633333Y-78764895D02*
X172633333Y-79336323D01*
X172633333Y-79336323D02*
X172595238Y-79450609D01*
X172595238Y-79450609D02*
X172519047Y-79526800D01*
X172519047Y-79526800D02*
X172404762Y-79564895D01*
X172404762Y-79564895D02*
X172328571Y-79564895D01*
X173357143Y-79031561D02*
X173357143Y-79564895D01*
X173166667Y-78726800D02*
X172976190Y-79298228D01*
X172976190Y-79298228D02*
X173471429Y-79298228D01*
X178109524Y-69564895D02*
X178109524Y-68764895D01*
X178109524Y-68764895D02*
X178300000Y-68764895D01*
X178300000Y-68764895D02*
X178414286Y-68802990D01*
X178414286Y-68802990D02*
X178490476Y-68879180D01*
X178490476Y-68879180D02*
X178528571Y-68955371D01*
X178528571Y-68955371D02*
X178566667Y-69107752D01*
X178566667Y-69107752D02*
X178566667Y-69222038D01*
X178566667Y-69222038D02*
X178528571Y-69374419D01*
X178528571Y-69374419D02*
X178490476Y-69450609D01*
X178490476Y-69450609D02*
X178414286Y-69526800D01*
X178414286Y-69526800D02*
X178300000Y-69564895D01*
X178300000Y-69564895D02*
X178109524Y-69564895D01*
X178871428Y-68841085D02*
X178909524Y-68802990D01*
X178909524Y-68802990D02*
X178985714Y-68764895D01*
X178985714Y-68764895D02*
X179176190Y-68764895D01*
X179176190Y-68764895D02*
X179252381Y-68802990D01*
X179252381Y-68802990D02*
X179290476Y-68841085D01*
X179290476Y-68841085D02*
X179328571Y-68917276D01*
X179328571Y-68917276D02*
X179328571Y-68993466D01*
X179328571Y-68993466D02*
X179290476Y-69107752D01*
X179290476Y-69107752D02*
X178833333Y-69564895D01*
X178833333Y-69564895D02*
X179328571Y-69564895D01*
X208066666Y-75364895D02*
X207685714Y-75364895D01*
X207685714Y-75364895D02*
X207685714Y-74564895D01*
X208752380Y-75364895D02*
X208295237Y-75364895D01*
X208523809Y-75364895D02*
X208523809Y-74564895D01*
X208523809Y-74564895D02*
X208447618Y-74679180D01*
X208447618Y-74679180D02*
X208371428Y-74755371D01*
X208371428Y-74755371D02*
X208295237Y-74793466D01*
X190733333Y-76864895D02*
X190733333Y-77436323D01*
X190733333Y-77436323D02*
X190695238Y-77550609D01*
X190695238Y-77550609D02*
X190619047Y-77626800D01*
X190619047Y-77626800D02*
X190504762Y-77664895D01*
X190504762Y-77664895D02*
X190428571Y-77664895D01*
X191038095Y-76864895D02*
X191533333Y-76864895D01*
X191533333Y-76864895D02*
X191266667Y-77169657D01*
X191266667Y-77169657D02*
X191380952Y-77169657D01*
X191380952Y-77169657D02*
X191457143Y-77207752D01*
X191457143Y-77207752D02*
X191495238Y-77245847D01*
X191495238Y-77245847D02*
X191533333Y-77322038D01*
X191533333Y-77322038D02*
X191533333Y-77512514D01*
X191533333Y-77512514D02*
X191495238Y-77588704D01*
X191495238Y-77588704D02*
X191457143Y-77626800D01*
X191457143Y-77626800D02*
X191380952Y-77664895D01*
X191380952Y-77664895D02*
X191152381Y-77664895D01*
X191152381Y-77664895D02*
X191076190Y-77626800D01*
X191076190Y-77626800D02*
X191038095Y-77588704D01*
X183234895Y-85643332D02*
X182853942Y-85909999D01*
X183234895Y-86100475D02*
X182434895Y-86100475D01*
X182434895Y-86100475D02*
X182434895Y-85795713D01*
X182434895Y-85795713D02*
X182472990Y-85719523D01*
X182472990Y-85719523D02*
X182511085Y-85681428D01*
X182511085Y-85681428D02*
X182587276Y-85643332D01*
X182587276Y-85643332D02*
X182701561Y-85643332D01*
X182701561Y-85643332D02*
X182777752Y-85681428D01*
X182777752Y-85681428D02*
X182815847Y-85719523D01*
X182815847Y-85719523D02*
X182853942Y-85795713D01*
X182853942Y-85795713D02*
X182853942Y-86100475D01*
X182434895Y-85376666D02*
X182434895Y-84881428D01*
X182434895Y-84881428D02*
X182739657Y-85148094D01*
X182739657Y-85148094D02*
X182739657Y-85033809D01*
X182739657Y-85033809D02*
X182777752Y-84957618D01*
X182777752Y-84957618D02*
X182815847Y-84919523D01*
X182815847Y-84919523D02*
X182892038Y-84881428D01*
X182892038Y-84881428D02*
X183082514Y-84881428D01*
X183082514Y-84881428D02*
X183158704Y-84919523D01*
X183158704Y-84919523D02*
X183196800Y-84957618D01*
X183196800Y-84957618D02*
X183234895Y-85033809D01*
X183234895Y-85033809D02*
X183234895Y-85262380D01*
X183234895Y-85262380D02*
X183196800Y-85338571D01*
X183196800Y-85338571D02*
X183158704Y-85376666D01*
X187143809Y-83331085D02*
X187067619Y-83292990D01*
X187067619Y-83292990D02*
X186991428Y-83216800D01*
X186991428Y-83216800D02*
X186877142Y-83102514D01*
X186877142Y-83102514D02*
X186800952Y-83064419D01*
X186800952Y-83064419D02*
X186724761Y-83064419D01*
X186762857Y-83254895D02*
X186686666Y-83216800D01*
X186686666Y-83216800D02*
X186610476Y-83140609D01*
X186610476Y-83140609D02*
X186572380Y-82988228D01*
X186572380Y-82988228D02*
X186572380Y-82721561D01*
X186572380Y-82721561D02*
X186610476Y-82569180D01*
X186610476Y-82569180D02*
X186686666Y-82492990D01*
X186686666Y-82492990D02*
X186762857Y-82454895D01*
X186762857Y-82454895D02*
X186915238Y-82454895D01*
X186915238Y-82454895D02*
X186991428Y-82492990D01*
X186991428Y-82492990D02*
X187067619Y-82569180D01*
X187067619Y-82569180D02*
X187105714Y-82721561D01*
X187105714Y-82721561D02*
X187105714Y-82988228D01*
X187105714Y-82988228D02*
X187067619Y-83140609D01*
X187067619Y-83140609D02*
X186991428Y-83216800D01*
X186991428Y-83216800D02*
X186915238Y-83254895D01*
X186915238Y-83254895D02*
X186762857Y-83254895D01*
X187867618Y-83254895D02*
X187410475Y-83254895D01*
X187639047Y-83254895D02*
X187639047Y-82454895D01*
X187639047Y-82454895D02*
X187562856Y-82569180D01*
X187562856Y-82569180D02*
X187486666Y-82645371D01*
X187486666Y-82645371D02*
X187410475Y-82683466D01*
X190576667Y-93454895D02*
X190310000Y-93073942D01*
X190119524Y-93454895D02*
X190119524Y-92654895D01*
X190119524Y-92654895D02*
X190424286Y-92654895D01*
X190424286Y-92654895D02*
X190500476Y-92692990D01*
X190500476Y-92692990D02*
X190538571Y-92731085D01*
X190538571Y-92731085D02*
X190576667Y-92807276D01*
X190576667Y-92807276D02*
X190576667Y-92921561D01*
X190576667Y-92921561D02*
X190538571Y-92997752D01*
X190538571Y-92997752D02*
X190500476Y-93035847D01*
X190500476Y-93035847D02*
X190424286Y-93073942D01*
X190424286Y-93073942D02*
X190119524Y-93073942D01*
X190881428Y-92731085D02*
X190919524Y-92692990D01*
X190919524Y-92692990D02*
X190995714Y-92654895D01*
X190995714Y-92654895D02*
X191186190Y-92654895D01*
X191186190Y-92654895D02*
X191262381Y-92692990D01*
X191262381Y-92692990D02*
X191300476Y-92731085D01*
X191300476Y-92731085D02*
X191338571Y-92807276D01*
X191338571Y-92807276D02*
X191338571Y-92883466D01*
X191338571Y-92883466D02*
X191300476Y-92997752D01*
X191300476Y-92997752D02*
X190843333Y-93454895D01*
X190843333Y-93454895D02*
X191338571Y-93454895D01*
X204866667Y-81288704D02*
X204828571Y-81326800D01*
X204828571Y-81326800D02*
X204714286Y-81364895D01*
X204714286Y-81364895D02*
X204638095Y-81364895D01*
X204638095Y-81364895D02*
X204523809Y-81326800D01*
X204523809Y-81326800D02*
X204447619Y-81250609D01*
X204447619Y-81250609D02*
X204409524Y-81174419D01*
X204409524Y-81174419D02*
X204371428Y-81022038D01*
X204371428Y-81022038D02*
X204371428Y-80907752D01*
X204371428Y-80907752D02*
X204409524Y-80755371D01*
X204409524Y-80755371D02*
X204447619Y-80679180D01*
X204447619Y-80679180D02*
X204523809Y-80602990D01*
X204523809Y-80602990D02*
X204638095Y-80564895D01*
X204638095Y-80564895D02*
X204714286Y-80564895D01*
X204714286Y-80564895D02*
X204828571Y-80602990D01*
X204828571Y-80602990D02*
X204866667Y-80641085D01*
X205628571Y-81364895D02*
X205171428Y-81364895D01*
X205400000Y-81364895D02*
X205400000Y-80564895D01*
X205400000Y-80564895D02*
X205323809Y-80679180D01*
X205323809Y-80679180D02*
X205247619Y-80755371D01*
X205247619Y-80755371D02*
X205171428Y-80793466D01*
X196128704Y-77523332D02*
X196166800Y-77561428D01*
X196166800Y-77561428D02*
X196204895Y-77675713D01*
X196204895Y-77675713D02*
X196204895Y-77751904D01*
X196204895Y-77751904D02*
X196166800Y-77866190D01*
X196166800Y-77866190D02*
X196090609Y-77942380D01*
X196090609Y-77942380D02*
X196014419Y-77980475D01*
X196014419Y-77980475D02*
X195862038Y-78018571D01*
X195862038Y-78018571D02*
X195747752Y-78018571D01*
X195747752Y-78018571D02*
X195595371Y-77980475D01*
X195595371Y-77980475D02*
X195519180Y-77942380D01*
X195519180Y-77942380D02*
X195442990Y-77866190D01*
X195442990Y-77866190D02*
X195404895Y-77751904D01*
X195404895Y-77751904D02*
X195404895Y-77675713D01*
X195404895Y-77675713D02*
X195442990Y-77561428D01*
X195442990Y-77561428D02*
X195481085Y-77523332D01*
X195481085Y-77218571D02*
X195442990Y-77180475D01*
X195442990Y-77180475D02*
X195404895Y-77104285D01*
X195404895Y-77104285D02*
X195404895Y-76913809D01*
X195404895Y-76913809D02*
X195442990Y-76837618D01*
X195442990Y-76837618D02*
X195481085Y-76799523D01*
X195481085Y-76799523D02*
X195557276Y-76761428D01*
X195557276Y-76761428D02*
X195633466Y-76761428D01*
X195633466Y-76761428D02*
X195747752Y-76799523D01*
X195747752Y-76799523D02*
X196204895Y-77256666D01*
X196204895Y-77256666D02*
X196204895Y-76761428D01*
X196376667Y-93444895D02*
X196110000Y-93063942D01*
X195919524Y-93444895D02*
X195919524Y-92644895D01*
X195919524Y-92644895D02*
X196224286Y-92644895D01*
X196224286Y-92644895D02*
X196300476Y-92682990D01*
X196300476Y-92682990D02*
X196338571Y-92721085D01*
X196338571Y-92721085D02*
X196376667Y-92797276D01*
X196376667Y-92797276D02*
X196376667Y-92911561D01*
X196376667Y-92911561D02*
X196338571Y-92987752D01*
X196338571Y-92987752D02*
X196300476Y-93025847D01*
X196300476Y-93025847D02*
X196224286Y-93063942D01*
X196224286Y-93063942D02*
X195919524Y-93063942D01*
X197138571Y-93444895D02*
X196681428Y-93444895D01*
X196910000Y-93444895D02*
X196910000Y-92644895D01*
X196910000Y-92644895D02*
X196833809Y-92759180D01*
X196833809Y-92759180D02*
X196757619Y-92835371D01*
X196757619Y-92835371D02*
X196681428Y-92873466D01*
X210233333Y-76564895D02*
X210233333Y-77136323D01*
X210233333Y-77136323D02*
X210195238Y-77250609D01*
X210195238Y-77250609D02*
X210119047Y-77326800D01*
X210119047Y-77326800D02*
X210004762Y-77364895D01*
X210004762Y-77364895D02*
X209928571Y-77364895D01*
X211033333Y-77364895D02*
X210576190Y-77364895D01*
X210804762Y-77364895D02*
X210804762Y-76564895D01*
X210804762Y-76564895D02*
X210728571Y-76679180D01*
X210728571Y-76679180D02*
X210652381Y-76755371D01*
X210652381Y-76755371D02*
X210576190Y-76793466D01*
X172433333Y-90264895D02*
X172433333Y-90836323D01*
X172433333Y-90836323D02*
X172395238Y-90950609D01*
X172395238Y-90950609D02*
X172319047Y-91026800D01*
X172319047Y-91026800D02*
X172204762Y-91064895D01*
X172204762Y-91064895D02*
X172128571Y-91064895D01*
X172776190Y-90341085D02*
X172814286Y-90302990D01*
X172814286Y-90302990D02*
X172890476Y-90264895D01*
X172890476Y-90264895D02*
X173080952Y-90264895D01*
X173080952Y-90264895D02*
X173157143Y-90302990D01*
X173157143Y-90302990D02*
X173195238Y-90341085D01*
X173195238Y-90341085D02*
X173233333Y-90417276D01*
X173233333Y-90417276D02*
X173233333Y-90493466D01*
X173233333Y-90493466D02*
X173195238Y-90607752D01*
X173195238Y-90607752D02*
X172738095Y-91064895D01*
X172738095Y-91064895D02*
X173233333Y-91064895D01*
D11*
%TO.C,U1*%
X192533550Y-86344801D02*
X194336950Y-86344801D01*
X194336950Y-83195201D02*
X192533550Y-83195201D01*
X194336950Y-85107862D02*
X194336950Y-84432140D01*
D12*
%TO.C,D1*%
X190857500Y-68840000D02*
X190857500Y-72140000D01*
X190857500Y-68840000D02*
X196367500Y-68840000D01*
X190857500Y-72140000D02*
X196367500Y-72140000D01*
%TO.C,R4*%
X181275436Y-90425000D02*
X181729564Y-90425000D01*
X181275436Y-91895000D02*
X181729564Y-91895000D01*
%TO.C,C3*%
X203293752Y-90435000D02*
X202771248Y-90435000D01*
X203293752Y-91905000D02*
X202771248Y-91905000D01*
%TO.C,J4*%
X167530000Y-74410000D02*
X171730000Y-74410000D01*
X167530000Y-75130000D02*
X167530000Y-74410000D01*
X171730000Y-75130000D02*
X167530000Y-75130000D01*
X173450000Y-75770000D02*
X171730000Y-75770000D01*
X173855000Y-76410000D02*
X173450000Y-76410000D01*
X173855000Y-77130000D02*
X173450000Y-77130000D01*
X173923144Y-74410000D02*
X173450000Y-74410000D01*
X173923144Y-75130000D02*
X173450000Y-75130000D01*
X175840000Y-76770000D02*
X175840000Y-77770000D01*
X175840000Y-77770000D02*
X174840000Y-77770000D01*
X171730000Y-77130000D02*
X167530000Y-77130000D01*
X167530000Y-76410000D01*
X171730000Y-76410000D01*
X171730000Y-77130000D01*
G36*
X171730000Y-77130000D02*
G01*
X167530000Y-77130000D01*
X167530000Y-76410000D01*
X171730000Y-76410000D01*
X171730000Y-77130000D01*
G37*
X173450000Y-77880000D02*
X171730000Y-77880000D01*
X171730000Y-73660000D01*
X173450000Y-73660000D01*
X173450000Y-77880000D01*
%TO.C,D2*%
X187060000Y-68800000D02*
X181550000Y-68800000D01*
X187060000Y-72100000D02*
X181550000Y-72100000D01*
X187060000Y-72100000D02*
X187060000Y-68800000D01*
D11*
%TO.C,L1*%
X199504000Y-72301900D02*
X199504000Y-80048900D01*
X199504000Y-80048900D02*
X201076260Y-80048900D01*
X201076260Y-72301900D02*
X199504000Y-72301900D01*
X205043740Y-80048900D02*
X206616000Y-80048900D01*
X206616000Y-72301900D02*
X205043740Y-72301900D01*
X206616000Y-80048900D02*
X206616000Y-72301900D01*
X203136200Y-71158900D02*
G75*
G02*
X202983800Y-71158900I-76200J0D01*
G01*
X202983800Y-71158900D02*
G75*
G02*
X203136200Y-71158900I76200J0D01*
G01*
D12*
%TO.C,J3*%
X179850000Y-74680000D02*
X179850000Y-76063000D01*
X179850000Y-74680000D02*
X181233000Y-74680000D01*
X180090000Y-74920000D02*
X180090000Y-79760000D01*
X180090000Y-74920000D02*
X189990000Y-74920000D01*
X180090000Y-79760000D02*
X189990000Y-79760000D01*
X184363333Y-76705000D02*
X184363333Y-77975000D01*
X189990000Y-74920000D02*
X189990000Y-79760000D01*
X183010000Y-76705000D02*
X184363333Y-76705000D01*
X184363333Y-77975000D01*
X183010000Y-77975000D01*
X183010000Y-76705000D01*
G36*
X183010000Y-76705000D02*
G01*
X184363333Y-76705000D01*
X184363333Y-77975000D01*
X183010000Y-77975000D01*
X183010000Y-76705000D01*
G37*
X183010000Y-76705000D02*
X187070000Y-76705000D01*
X187070000Y-77975000D01*
X183010000Y-77975000D01*
X183010000Y-76705000D01*
%TO.C,R3*%
X180485000Y-85282936D02*
X180485000Y-85737064D01*
X181955000Y-85282936D02*
X181955000Y-85737064D01*
%TO.C,Q1*%
X186460000Y-83730000D02*
X187980000Y-83730000D01*
X186460000Y-83780000D02*
X186460000Y-83730000D01*
X186460000Y-85680000D02*
X186460000Y-84900000D01*
X186460000Y-86850000D02*
X186460000Y-86800000D01*
X187980000Y-83730000D02*
X187980000Y-84730000D01*
X187980000Y-85850000D02*
X187980000Y-86850000D01*
X187980000Y-86850000D02*
X186460000Y-86850000D01*
X186160000Y-85240000D02*
X185680000Y-85240000D01*
X185920000Y-84910000D01*
X186160000Y-85240000D01*
G36*
X186160000Y-85240000D02*
G01*
X185680000Y-85240000D01*
X185920000Y-84910000D01*
X186160000Y-85240000D01*
G37*
%TO.C,R2*%
X190937064Y-90705000D02*
X190482936Y-90705000D01*
X190937064Y-92175000D02*
X190482936Y-92175000D01*
%TO.C,C1*%
X203258748Y-81815000D02*
X203781252Y-81815000D01*
X203258748Y-83285000D02*
X203781252Y-83285000D01*
%TO.C,C2*%
X193080000Y-76678748D02*
X193080000Y-78101252D01*
X194900000Y-76678748D02*
X194900000Y-78101252D01*
%TO.C,R1*%
X196737064Y-90695000D02*
X196282936Y-90695000D01*
X196737064Y-92165000D02*
X196282936Y-92165000D01*
%TO.C,J1*%
X209255000Y-78435000D02*
X210525000Y-78435000D01*
X209255000Y-79705000D02*
X209255000Y-78435000D01*
X211602358Y-81815000D02*
X211915000Y-81815000D01*
X211602358Y-82675000D02*
X211915000Y-82675000D01*
X211685000Y-79275000D02*
X211915000Y-79275000D01*
X211685000Y-80135000D02*
X211915000Y-80135000D01*
X211915000Y-80975000D02*
X214675000Y-80975000D01*
X214675000Y-81815000D02*
X220675000Y-81815000D01*
X220675000Y-81815000D02*
X220675000Y-82675000D01*
X220675000Y-82675000D02*
X214675000Y-82675000D01*
X211915000Y-78325000D02*
X214675000Y-78325000D01*
X214675000Y-83625000D01*
X211915000Y-83625000D01*
X211915000Y-78325000D01*
X214675000Y-79275000D02*
X220675000Y-79275000D01*
X220675000Y-80135000D01*
X214675000Y-80135000D01*
X214675000Y-79275000D01*
G36*
X214675000Y-79275000D02*
G01*
X220675000Y-79275000D01*
X220675000Y-80135000D01*
X214675000Y-80135000D01*
X214675000Y-79275000D01*
G37*
%TO.C,J2*%
X165830000Y-84970000D02*
X171830000Y-84970000D01*
X165830000Y-85830000D02*
X165830000Y-84970000D01*
X171830000Y-85830000D02*
X165830000Y-85830000D01*
X174590000Y-86670000D02*
X171830000Y-86670000D01*
X174820000Y-87510000D02*
X174590000Y-87510000D01*
X174820000Y-88370000D02*
X174590000Y-88370000D01*
X174902642Y-84970000D02*
X174590000Y-84970000D01*
X174902642Y-85830000D02*
X174590000Y-85830000D01*
X177250000Y-87940000D02*
X177250000Y-89210000D01*
X177250000Y-89210000D02*
X175980000Y-89210000D01*
X171830000Y-88370000D02*
X165830000Y-88370000D01*
X165830000Y-87510000D01*
X171830000Y-87510000D01*
X171830000Y-88370000D01*
G36*
X171830000Y-88370000D02*
G01*
X165830000Y-88370000D01*
X165830000Y-87510000D01*
X171830000Y-87510000D01*
X171830000Y-88370000D01*
G37*
X174590000Y-89320000D02*
X171830000Y-89320000D01*
X171830000Y-84020000D01*
X174590000Y-84020000D01*
X174590000Y-89320000D01*
%TD*%
M02*
