%TF.GenerationSoftware,KiCad,Pcbnew,9.0.7*%
%TF.CreationDate,2026-05-10T22:03:26+02:00*%
%TF.ProjectId,SolarPowerSupply,536f6c61-7250-46f7-9765-72537570706c,rev?*%
%TF.SameCoordinates,Original*%
%TF.FileFunction,Drillmap*%
%TF.FilePolarity,Positive*%
%FSLAX45Y45*%
G04 Gerber Fmt 4.5, Leading zero omitted, Abs format (unit mm)*
G04 Created by KiCad (PCBNEW 9.0.7) date 2026-05-10 22:03:26*
%MOMM*%
%LPD*%
G01*
G04 APERTURE LIST*
%ADD10C,0.050000*%
%ADD11C,0.200000*%
%ADD12C,0.100000*%
G04 APERTURE END LIST*
D10*
X21463796Y-9182740D02*
X21464796Y-6998260D01*
X17161944Y-6998060D02*
X17162000Y-9183000D01*
X17390060Y-9411056D02*
X21235740Y-9410796D01*
X21463796Y-9182740D02*
G75*
G02*
X21235740Y-9410796I-228056J0D01*
G01*
X21236740Y-6770204D02*
G75*
G02*
X21464796Y-6998260I0J-228056D01*
G01*
X17161944Y-6998056D02*
G75*
G02*
X17390000Y-6770004I228056J-4D01*
G01*
X21236740Y-6770204D02*
X17390000Y-6770000D01*
X17390056Y-9411056D02*
G75*
G02*
X17162004Y-9183000I4J228056D01*
G01*
D11*
D12*
X18330000Y-9100000D02*
X18360000Y-9130000D01*
X18360000Y-9100000D02*
X18330000Y-9130000D01*
X18480000Y-8160000D02*
X18510000Y-8190000D01*
X18510000Y-8160000D02*
X18480000Y-8190000D01*
X18480000Y-8610000D02*
X18510000Y-8640000D01*
X18510000Y-8610000D02*
X18480000Y-8640000D01*
X18860000Y-9130000D02*
X18890000Y-9160000D01*
X18890000Y-9130000D02*
X18860000Y-9160000D01*
X19065000Y-8460000D02*
X19095000Y-8490000D01*
X19095000Y-8460000D02*
X19065000Y-8490000D01*
X19235000Y-7870000D02*
X19265000Y-7900000D01*
X19265000Y-7870000D02*
X19235000Y-7900000D01*
X19595000Y-8160000D02*
X19625000Y-8190000D01*
X19625000Y-8160000D02*
X19595000Y-8190000D01*
X20535000Y-8235000D02*
X20565000Y-8265000D01*
X20565000Y-8235000D02*
X20535000Y-8265000D01*
X17524000Y-7477000D02*
G75*
G02*
X17444000Y-7477000I-40000J0D01*
G01*
X17444000Y-7477000D02*
G75*
G02*
X17524000Y-7477000I40000J0D01*
G01*
X17524000Y-7677000D02*
G75*
G02*
X17444000Y-7677000I-40000J0D01*
G01*
X17444000Y-7677000D02*
G75*
G02*
X17524000Y-7677000I40000J0D01*
G01*
X18163000Y-7734000D02*
G75*
G02*
X18083000Y-7734000I-40000J0D01*
G01*
X18083000Y-7734000D02*
G75*
G02*
X18163000Y-7734000I40000J0D01*
G01*
X18925000Y-7734000D02*
G75*
G02*
X18845000Y-7734000I-40000J0D01*
G01*
X18845000Y-7734000D02*
G75*
G02*
X18925000Y-7734000I40000J0D01*
G01*
X17598000Y-8490000D02*
X17598000Y-8590000D01*
X17548000Y-8540000D02*
X17648000Y-8540000D01*
X17598000Y-8744000D02*
X17598000Y-8844000D01*
X17548000Y-8794000D02*
X17648000Y-8794000D01*
X21052500Y-7920500D02*
X21052500Y-8020500D01*
X21002500Y-7970500D02*
X21102500Y-7970500D01*
X21052500Y-8174500D02*
X21052500Y-8274500D01*
X21002500Y-8224500D02*
X21102500Y-8224500D01*
D11*
X17420221Y-9725040D02*
X17420221Y-9525040D01*
X17420221Y-9525040D02*
X17467840Y-9525040D01*
X17467840Y-9525040D02*
X17496411Y-9534564D01*
X17496411Y-9534564D02*
X17515459Y-9553611D01*
X17515459Y-9553611D02*
X17524983Y-9572659D01*
X17524983Y-9572659D02*
X17534507Y-9610754D01*
X17534507Y-9610754D02*
X17534507Y-9639326D01*
X17534507Y-9639326D02*
X17524983Y-9677421D01*
X17524983Y-9677421D02*
X17515459Y-9696468D01*
X17515459Y-9696468D02*
X17496411Y-9715516D01*
X17496411Y-9715516D02*
X17467840Y-9725040D01*
X17467840Y-9725040D02*
X17420221Y-9725040D01*
X17620221Y-9725040D02*
X17620221Y-9591706D01*
X17620221Y-9629802D02*
X17629745Y-9610754D01*
X17629745Y-9610754D02*
X17639268Y-9601230D01*
X17639268Y-9601230D02*
X17658316Y-9591706D01*
X17658316Y-9591706D02*
X17677364Y-9591706D01*
X17744030Y-9725040D02*
X17744030Y-9591706D01*
X17744030Y-9525040D02*
X17734507Y-9534564D01*
X17734507Y-9534564D02*
X17744030Y-9544087D01*
X17744030Y-9544087D02*
X17753554Y-9534564D01*
X17753554Y-9534564D02*
X17744030Y-9525040D01*
X17744030Y-9525040D02*
X17744030Y-9544087D01*
X17867840Y-9725040D02*
X17848792Y-9715516D01*
X17848792Y-9715516D02*
X17839268Y-9696468D01*
X17839268Y-9696468D02*
X17839268Y-9525040D01*
X17972602Y-9725040D02*
X17953554Y-9715516D01*
X17953554Y-9715516D02*
X17944030Y-9696468D01*
X17944030Y-9696468D02*
X17944030Y-9525040D01*
X18201173Y-9725040D02*
X18201173Y-9525040D01*
X18201173Y-9525040D02*
X18267840Y-9667897D01*
X18267840Y-9667897D02*
X18334507Y-9525040D01*
X18334507Y-9525040D02*
X18334507Y-9725040D01*
X18515459Y-9725040D02*
X18515459Y-9620278D01*
X18515459Y-9620278D02*
X18505935Y-9601230D01*
X18505935Y-9601230D02*
X18486888Y-9591706D01*
X18486888Y-9591706D02*
X18448792Y-9591706D01*
X18448792Y-9591706D02*
X18429745Y-9601230D01*
X18515459Y-9715516D02*
X18496411Y-9725040D01*
X18496411Y-9725040D02*
X18448792Y-9725040D01*
X18448792Y-9725040D02*
X18429745Y-9715516D01*
X18429745Y-9715516D02*
X18420221Y-9696468D01*
X18420221Y-9696468D02*
X18420221Y-9677421D01*
X18420221Y-9677421D02*
X18429745Y-9658373D01*
X18429745Y-9658373D02*
X18448792Y-9648849D01*
X18448792Y-9648849D02*
X18496411Y-9648849D01*
X18496411Y-9648849D02*
X18515459Y-9639326D01*
X18610697Y-9591706D02*
X18610697Y-9791706D01*
X18610697Y-9601230D02*
X18629745Y-9591706D01*
X18629745Y-9591706D02*
X18667840Y-9591706D01*
X18667840Y-9591706D02*
X18686888Y-9601230D01*
X18686888Y-9601230D02*
X18696411Y-9610754D01*
X18696411Y-9610754D02*
X18705935Y-9629802D01*
X18705935Y-9629802D02*
X18705935Y-9686945D01*
X18705935Y-9686945D02*
X18696411Y-9705992D01*
X18696411Y-9705992D02*
X18686888Y-9715516D01*
X18686888Y-9715516D02*
X18667840Y-9725040D01*
X18667840Y-9725040D02*
X18629745Y-9725040D01*
X18629745Y-9725040D02*
X18610697Y-9715516D01*
X18791649Y-9705992D02*
X18801173Y-9715516D01*
X18801173Y-9715516D02*
X18791649Y-9725040D01*
X18791649Y-9725040D02*
X18782126Y-9715516D01*
X18782126Y-9715516D02*
X18791649Y-9705992D01*
X18791649Y-9705992D02*
X18791649Y-9725040D01*
X18791649Y-9601230D02*
X18801173Y-9610754D01*
X18801173Y-9610754D02*
X18791649Y-9620278D01*
X18791649Y-9620278D02*
X18782126Y-9610754D01*
X18782126Y-9610754D02*
X18791649Y-9601230D01*
X18791649Y-9601230D02*
X18791649Y-9620278D01*
D12*
X17129444Y-10038556D02*
X17159444Y-10068556D01*
X17159444Y-10038556D02*
X17129444Y-10068556D01*
D11*
X17458316Y-9945040D02*
X17477364Y-9945040D01*
X17477364Y-9945040D02*
X17496411Y-9954564D01*
X17496411Y-9954564D02*
X17505935Y-9964087D01*
X17505935Y-9964087D02*
X17515459Y-9983135D01*
X17515459Y-9983135D02*
X17524983Y-10021230D01*
X17524983Y-10021230D02*
X17524983Y-10068849D01*
X17524983Y-10068849D02*
X17515459Y-10106945D01*
X17515459Y-10106945D02*
X17505935Y-10125992D01*
X17505935Y-10125992D02*
X17496411Y-10135516D01*
X17496411Y-10135516D02*
X17477364Y-10145040D01*
X17477364Y-10145040D02*
X17458316Y-10145040D01*
X17458316Y-10145040D02*
X17439268Y-10135516D01*
X17439268Y-10135516D02*
X17429745Y-10125992D01*
X17429745Y-10125992D02*
X17420221Y-10106945D01*
X17420221Y-10106945D02*
X17410697Y-10068849D01*
X17410697Y-10068849D02*
X17410697Y-10021230D01*
X17410697Y-10021230D02*
X17420221Y-9983135D01*
X17420221Y-9983135D02*
X17429745Y-9964087D01*
X17429745Y-9964087D02*
X17439268Y-9954564D01*
X17439268Y-9954564D02*
X17458316Y-9945040D01*
X17610697Y-10125992D02*
X17620221Y-10135516D01*
X17620221Y-10135516D02*
X17610697Y-10145040D01*
X17610697Y-10145040D02*
X17601173Y-10135516D01*
X17601173Y-10135516D02*
X17610697Y-10125992D01*
X17610697Y-10125992D02*
X17610697Y-10145040D01*
X17686888Y-9945040D02*
X17810697Y-9945040D01*
X17810697Y-9945040D02*
X17744030Y-10021230D01*
X17744030Y-10021230D02*
X17772602Y-10021230D01*
X17772602Y-10021230D02*
X17791649Y-10030754D01*
X17791649Y-10030754D02*
X17801173Y-10040278D01*
X17801173Y-10040278D02*
X17810697Y-10059326D01*
X17810697Y-10059326D02*
X17810697Y-10106945D01*
X17810697Y-10106945D02*
X17801173Y-10125992D01*
X17801173Y-10125992D02*
X17791649Y-10135516D01*
X17791649Y-10135516D02*
X17772602Y-10145040D01*
X17772602Y-10145040D02*
X17715459Y-10145040D01*
X17715459Y-10145040D02*
X17696411Y-10135516D01*
X17696411Y-10135516D02*
X17686888Y-10125992D01*
X17934507Y-9945040D02*
X17953554Y-9945040D01*
X17953554Y-9945040D02*
X17972602Y-9954564D01*
X17972602Y-9954564D02*
X17982126Y-9964087D01*
X17982126Y-9964087D02*
X17991649Y-9983135D01*
X17991649Y-9983135D02*
X18001173Y-10021230D01*
X18001173Y-10021230D02*
X18001173Y-10068849D01*
X18001173Y-10068849D02*
X17991649Y-10106945D01*
X17991649Y-10106945D02*
X17982126Y-10125992D01*
X17982126Y-10125992D02*
X17972602Y-10135516D01*
X17972602Y-10135516D02*
X17953554Y-10145040D01*
X17953554Y-10145040D02*
X17934507Y-10145040D01*
X17934507Y-10145040D02*
X17915459Y-10135516D01*
X17915459Y-10135516D02*
X17905935Y-10125992D01*
X17905935Y-10125992D02*
X17896411Y-10106945D01*
X17896411Y-10106945D02*
X17886888Y-10068849D01*
X17886888Y-10068849D02*
X17886888Y-10021230D01*
X17886888Y-10021230D02*
X17896411Y-9983135D01*
X17896411Y-9983135D02*
X17905935Y-9964087D01*
X17905935Y-9964087D02*
X17915459Y-9954564D01*
X17915459Y-9954564D02*
X17934507Y-9945040D01*
X18124983Y-9945040D02*
X18144030Y-9945040D01*
X18144030Y-9945040D02*
X18163078Y-9954564D01*
X18163078Y-9954564D02*
X18172602Y-9964087D01*
X18172602Y-9964087D02*
X18182126Y-9983135D01*
X18182126Y-9983135D02*
X18191649Y-10021230D01*
X18191649Y-10021230D02*
X18191649Y-10068849D01*
X18191649Y-10068849D02*
X18182126Y-10106945D01*
X18182126Y-10106945D02*
X18172602Y-10125992D01*
X18172602Y-10125992D02*
X18163078Y-10135516D01*
X18163078Y-10135516D02*
X18144030Y-10145040D01*
X18144030Y-10145040D02*
X18124983Y-10145040D01*
X18124983Y-10145040D02*
X18105935Y-10135516D01*
X18105935Y-10135516D02*
X18096411Y-10125992D01*
X18096411Y-10125992D02*
X18086888Y-10106945D01*
X18086888Y-10106945D02*
X18077364Y-10068849D01*
X18077364Y-10068849D02*
X18077364Y-10021230D01*
X18077364Y-10021230D02*
X18086888Y-9983135D01*
X18086888Y-9983135D02*
X18096411Y-9964087D01*
X18096411Y-9964087D02*
X18105935Y-9954564D01*
X18105935Y-9954564D02*
X18124983Y-9945040D01*
X18277364Y-10145040D02*
X18277364Y-10011706D01*
X18277364Y-10030754D02*
X18286888Y-10021230D01*
X18286888Y-10021230D02*
X18305935Y-10011706D01*
X18305935Y-10011706D02*
X18334507Y-10011706D01*
X18334507Y-10011706D02*
X18353554Y-10021230D01*
X18353554Y-10021230D02*
X18363078Y-10040278D01*
X18363078Y-10040278D02*
X18363078Y-10145040D01*
X18363078Y-10040278D02*
X18372602Y-10021230D01*
X18372602Y-10021230D02*
X18391649Y-10011706D01*
X18391649Y-10011706D02*
X18420221Y-10011706D01*
X18420221Y-10011706D02*
X18439269Y-10021230D01*
X18439269Y-10021230D02*
X18448792Y-10040278D01*
X18448792Y-10040278D02*
X18448792Y-10145040D01*
X18544030Y-10145040D02*
X18544030Y-10011706D01*
X18544030Y-10030754D02*
X18553554Y-10021230D01*
X18553554Y-10021230D02*
X18572602Y-10011706D01*
X18572602Y-10011706D02*
X18601173Y-10011706D01*
X18601173Y-10011706D02*
X18620221Y-10021230D01*
X18620221Y-10021230D02*
X18629745Y-10040278D01*
X18629745Y-10040278D02*
X18629745Y-10145040D01*
X18629745Y-10040278D02*
X18639269Y-10021230D01*
X18639269Y-10021230D02*
X18658316Y-10011706D01*
X18658316Y-10011706D02*
X18686888Y-10011706D01*
X18686888Y-10011706D02*
X18705935Y-10021230D01*
X18705935Y-10021230D02*
X18715459Y-10040278D01*
X18715459Y-10040278D02*
X18715459Y-10145040D01*
X19105935Y-9935516D02*
X18934507Y-10192659D01*
X19363078Y-9945040D02*
X19382126Y-9945040D01*
X19382126Y-9945040D02*
X19401173Y-9954564D01*
X19401173Y-9954564D02*
X19410697Y-9964087D01*
X19410697Y-9964087D02*
X19420221Y-9983135D01*
X19420221Y-9983135D02*
X19429745Y-10021230D01*
X19429745Y-10021230D02*
X19429745Y-10068849D01*
X19429745Y-10068849D02*
X19420221Y-10106945D01*
X19420221Y-10106945D02*
X19410697Y-10125992D01*
X19410697Y-10125992D02*
X19401173Y-10135516D01*
X19401173Y-10135516D02*
X19382126Y-10145040D01*
X19382126Y-10145040D02*
X19363078Y-10145040D01*
X19363078Y-10145040D02*
X19344031Y-10135516D01*
X19344031Y-10135516D02*
X19334507Y-10125992D01*
X19334507Y-10125992D02*
X19324983Y-10106945D01*
X19324983Y-10106945D02*
X19315459Y-10068849D01*
X19315459Y-10068849D02*
X19315459Y-10021230D01*
X19315459Y-10021230D02*
X19324983Y-9983135D01*
X19324983Y-9983135D02*
X19334507Y-9964087D01*
X19334507Y-9964087D02*
X19344031Y-9954564D01*
X19344031Y-9954564D02*
X19363078Y-9945040D01*
X19515459Y-10125992D02*
X19524983Y-10135516D01*
X19524983Y-10135516D02*
X19515459Y-10145040D01*
X19515459Y-10145040D02*
X19505935Y-10135516D01*
X19505935Y-10135516D02*
X19515459Y-10125992D01*
X19515459Y-10125992D02*
X19515459Y-10145040D01*
X19648792Y-9945040D02*
X19667840Y-9945040D01*
X19667840Y-9945040D02*
X19686888Y-9954564D01*
X19686888Y-9954564D02*
X19696412Y-9964087D01*
X19696412Y-9964087D02*
X19705935Y-9983135D01*
X19705935Y-9983135D02*
X19715459Y-10021230D01*
X19715459Y-10021230D02*
X19715459Y-10068849D01*
X19715459Y-10068849D02*
X19705935Y-10106945D01*
X19705935Y-10106945D02*
X19696412Y-10125992D01*
X19696412Y-10125992D02*
X19686888Y-10135516D01*
X19686888Y-10135516D02*
X19667840Y-10145040D01*
X19667840Y-10145040D02*
X19648792Y-10145040D01*
X19648792Y-10145040D02*
X19629745Y-10135516D01*
X19629745Y-10135516D02*
X19620221Y-10125992D01*
X19620221Y-10125992D02*
X19610697Y-10106945D01*
X19610697Y-10106945D02*
X19601173Y-10068849D01*
X19601173Y-10068849D02*
X19601173Y-10021230D01*
X19601173Y-10021230D02*
X19610697Y-9983135D01*
X19610697Y-9983135D02*
X19620221Y-9964087D01*
X19620221Y-9964087D02*
X19629745Y-9954564D01*
X19629745Y-9954564D02*
X19648792Y-9945040D01*
X19905935Y-10145040D02*
X19791650Y-10145040D01*
X19848792Y-10145040D02*
X19848792Y-9945040D01*
X19848792Y-9945040D02*
X19829745Y-9973611D01*
X19829745Y-9973611D02*
X19810697Y-9992659D01*
X19810697Y-9992659D02*
X19791650Y-10002183D01*
X20096412Y-10145040D02*
X19982126Y-10145040D01*
X20039269Y-10145040D02*
X20039269Y-9945040D01*
X20039269Y-9945040D02*
X20020221Y-9973611D01*
X20020221Y-9973611D02*
X20001173Y-9992659D01*
X20001173Y-9992659D02*
X19982126Y-10002183D01*
X20210697Y-10030754D02*
X20191650Y-10021230D01*
X20191650Y-10021230D02*
X20182126Y-10011706D01*
X20182126Y-10011706D02*
X20172602Y-9992659D01*
X20172602Y-9992659D02*
X20172602Y-9983135D01*
X20172602Y-9983135D02*
X20182126Y-9964087D01*
X20182126Y-9964087D02*
X20191650Y-9954564D01*
X20191650Y-9954564D02*
X20210697Y-9945040D01*
X20210697Y-9945040D02*
X20248793Y-9945040D01*
X20248793Y-9945040D02*
X20267840Y-9954564D01*
X20267840Y-9954564D02*
X20277364Y-9964087D01*
X20277364Y-9964087D02*
X20286888Y-9983135D01*
X20286888Y-9983135D02*
X20286888Y-9992659D01*
X20286888Y-9992659D02*
X20277364Y-10011706D01*
X20277364Y-10011706D02*
X20267840Y-10021230D01*
X20267840Y-10021230D02*
X20248793Y-10030754D01*
X20248793Y-10030754D02*
X20210697Y-10030754D01*
X20210697Y-10030754D02*
X20191650Y-10040278D01*
X20191650Y-10040278D02*
X20182126Y-10049802D01*
X20182126Y-10049802D02*
X20172602Y-10068849D01*
X20172602Y-10068849D02*
X20172602Y-10106945D01*
X20172602Y-10106945D02*
X20182126Y-10125992D01*
X20182126Y-10125992D02*
X20191650Y-10135516D01*
X20191650Y-10135516D02*
X20210697Y-10145040D01*
X20210697Y-10145040D02*
X20248793Y-10145040D01*
X20248793Y-10145040D02*
X20267840Y-10135516D01*
X20267840Y-10135516D02*
X20277364Y-10125992D01*
X20277364Y-10125992D02*
X20286888Y-10106945D01*
X20286888Y-10106945D02*
X20286888Y-10068849D01*
X20286888Y-10068849D02*
X20277364Y-10049802D01*
X20277364Y-10049802D02*
X20267840Y-10040278D01*
X20267840Y-10040278D02*
X20248793Y-10030754D01*
X20363078Y-9945040D02*
X20363078Y-9983135D01*
X20439269Y-9945040D02*
X20439269Y-9983135D01*
X20734507Y-10221230D02*
X20724983Y-10211706D01*
X20724983Y-10211706D02*
X20705935Y-10183135D01*
X20705935Y-10183135D02*
X20696412Y-10164087D01*
X20696412Y-10164087D02*
X20686888Y-10135516D01*
X20686888Y-10135516D02*
X20677364Y-10087897D01*
X20677364Y-10087897D02*
X20677364Y-10049802D01*
X20677364Y-10049802D02*
X20686888Y-10002183D01*
X20686888Y-10002183D02*
X20696412Y-9973611D01*
X20696412Y-9973611D02*
X20705935Y-9954564D01*
X20705935Y-9954564D02*
X20724983Y-9925992D01*
X20724983Y-9925992D02*
X20734507Y-9916468D01*
X20839269Y-10030754D02*
X20820221Y-10021230D01*
X20820221Y-10021230D02*
X20810697Y-10011706D01*
X20810697Y-10011706D02*
X20801174Y-9992659D01*
X20801174Y-9992659D02*
X20801174Y-9983135D01*
X20801174Y-9983135D02*
X20810697Y-9964087D01*
X20810697Y-9964087D02*
X20820221Y-9954564D01*
X20820221Y-9954564D02*
X20839269Y-9945040D01*
X20839269Y-9945040D02*
X20877364Y-9945040D01*
X20877364Y-9945040D02*
X20896412Y-9954564D01*
X20896412Y-9954564D02*
X20905935Y-9964087D01*
X20905935Y-9964087D02*
X20915459Y-9983135D01*
X20915459Y-9983135D02*
X20915459Y-9992659D01*
X20915459Y-9992659D02*
X20905935Y-10011706D01*
X20905935Y-10011706D02*
X20896412Y-10021230D01*
X20896412Y-10021230D02*
X20877364Y-10030754D01*
X20877364Y-10030754D02*
X20839269Y-10030754D01*
X20839269Y-10030754D02*
X20820221Y-10040278D01*
X20820221Y-10040278D02*
X20810697Y-10049802D01*
X20810697Y-10049802D02*
X20801174Y-10068849D01*
X20801174Y-10068849D02*
X20801174Y-10106945D01*
X20801174Y-10106945D02*
X20810697Y-10125992D01*
X20810697Y-10125992D02*
X20820221Y-10135516D01*
X20820221Y-10135516D02*
X20839269Y-10145040D01*
X20839269Y-10145040D02*
X20877364Y-10145040D01*
X20877364Y-10145040D02*
X20896412Y-10135516D01*
X20896412Y-10135516D02*
X20905935Y-10125992D01*
X20905935Y-10125992D02*
X20915459Y-10106945D01*
X20915459Y-10106945D02*
X20915459Y-10068849D01*
X20915459Y-10068849D02*
X20905935Y-10049802D01*
X20905935Y-10049802D02*
X20896412Y-10040278D01*
X20896412Y-10040278D02*
X20877364Y-10030754D01*
X21153555Y-10145040D02*
X21153555Y-9945040D01*
X21239269Y-10145040D02*
X21239269Y-10040278D01*
X21239269Y-10040278D02*
X21229745Y-10021230D01*
X21229745Y-10021230D02*
X21210697Y-10011706D01*
X21210697Y-10011706D02*
X21182126Y-10011706D01*
X21182126Y-10011706D02*
X21163078Y-10021230D01*
X21163078Y-10021230D02*
X21153555Y-10030754D01*
X21363078Y-10145040D02*
X21344031Y-10135516D01*
X21344031Y-10135516D02*
X21334507Y-10125992D01*
X21334507Y-10125992D02*
X21324983Y-10106945D01*
X21324983Y-10106945D02*
X21324983Y-10049802D01*
X21324983Y-10049802D02*
X21334507Y-10030754D01*
X21334507Y-10030754D02*
X21344031Y-10021230D01*
X21344031Y-10021230D02*
X21363078Y-10011706D01*
X21363078Y-10011706D02*
X21391650Y-10011706D01*
X21391650Y-10011706D02*
X21410697Y-10021230D01*
X21410697Y-10021230D02*
X21420221Y-10030754D01*
X21420221Y-10030754D02*
X21429745Y-10049802D01*
X21429745Y-10049802D02*
X21429745Y-10106945D01*
X21429745Y-10106945D02*
X21420221Y-10125992D01*
X21420221Y-10125992D02*
X21410697Y-10135516D01*
X21410697Y-10135516D02*
X21391650Y-10145040D01*
X21391650Y-10145040D02*
X21363078Y-10145040D01*
X21544031Y-10145040D02*
X21524983Y-10135516D01*
X21524983Y-10135516D02*
X21515459Y-10116468D01*
X21515459Y-10116468D02*
X21515459Y-9945040D01*
X21696412Y-10135516D02*
X21677364Y-10145040D01*
X21677364Y-10145040D02*
X21639269Y-10145040D01*
X21639269Y-10145040D02*
X21620221Y-10135516D01*
X21620221Y-10135516D02*
X21610697Y-10116468D01*
X21610697Y-10116468D02*
X21610697Y-10040278D01*
X21610697Y-10040278D02*
X21620221Y-10021230D01*
X21620221Y-10021230D02*
X21639269Y-10011706D01*
X21639269Y-10011706D02*
X21677364Y-10011706D01*
X21677364Y-10011706D02*
X21696412Y-10021230D01*
X21696412Y-10021230D02*
X21705936Y-10040278D01*
X21705936Y-10040278D02*
X21705936Y-10059326D01*
X21705936Y-10059326D02*
X21610697Y-10078373D01*
X21782126Y-10135516D02*
X21801174Y-10145040D01*
X21801174Y-10145040D02*
X21839269Y-10145040D01*
X21839269Y-10145040D02*
X21858317Y-10135516D01*
X21858317Y-10135516D02*
X21867840Y-10116468D01*
X21867840Y-10116468D02*
X21867840Y-10106945D01*
X21867840Y-10106945D02*
X21858317Y-10087897D01*
X21858317Y-10087897D02*
X21839269Y-10078373D01*
X21839269Y-10078373D02*
X21810697Y-10078373D01*
X21810697Y-10078373D02*
X21791650Y-10068849D01*
X21791650Y-10068849D02*
X21782126Y-10049802D01*
X21782126Y-10049802D02*
X21782126Y-10040278D01*
X21782126Y-10040278D02*
X21791650Y-10021230D01*
X21791650Y-10021230D02*
X21810697Y-10011706D01*
X21810697Y-10011706D02*
X21839269Y-10011706D01*
X21839269Y-10011706D02*
X21858317Y-10021230D01*
X21934507Y-10221230D02*
X21944031Y-10211706D01*
X21944031Y-10211706D02*
X21963078Y-10183135D01*
X21963078Y-10183135D02*
X21972602Y-10164087D01*
X21972602Y-10164087D02*
X21982126Y-10135516D01*
X21982126Y-10135516D02*
X21991650Y-10087897D01*
X21991650Y-10087897D02*
X21991650Y-10049802D01*
X21991650Y-10049802D02*
X21982126Y-10002183D01*
X21982126Y-10002183D02*
X21972602Y-9973611D01*
X21972602Y-9973611D02*
X21963078Y-9954564D01*
X21963078Y-9954564D02*
X21944031Y-9925992D01*
X21944031Y-9925992D02*
X21934507Y-9916468D01*
D12*
X17159444Y-10317556D02*
G75*
G02*
X17079444Y-10317556I-40000J0D01*
G01*
X17079444Y-10317556D02*
G75*
G02*
X17159444Y-10317556I40000J0D01*
G01*
D11*
X17458316Y-10209040D02*
X17477364Y-10209040D01*
X17477364Y-10209040D02*
X17496411Y-10218564D01*
X17496411Y-10218564D02*
X17505935Y-10228087D01*
X17505935Y-10228087D02*
X17515459Y-10247135D01*
X17515459Y-10247135D02*
X17524983Y-10285230D01*
X17524983Y-10285230D02*
X17524983Y-10332849D01*
X17524983Y-10332849D02*
X17515459Y-10370945D01*
X17515459Y-10370945D02*
X17505935Y-10389992D01*
X17505935Y-10389992D02*
X17496411Y-10399516D01*
X17496411Y-10399516D02*
X17477364Y-10409040D01*
X17477364Y-10409040D02*
X17458316Y-10409040D01*
X17458316Y-10409040D02*
X17439268Y-10399516D01*
X17439268Y-10399516D02*
X17429745Y-10389992D01*
X17429745Y-10389992D02*
X17420221Y-10370945D01*
X17420221Y-10370945D02*
X17410697Y-10332849D01*
X17410697Y-10332849D02*
X17410697Y-10285230D01*
X17410697Y-10285230D02*
X17420221Y-10247135D01*
X17420221Y-10247135D02*
X17429745Y-10228087D01*
X17429745Y-10228087D02*
X17439268Y-10218564D01*
X17439268Y-10218564D02*
X17458316Y-10209040D01*
X17610697Y-10389992D02*
X17620221Y-10399516D01*
X17620221Y-10399516D02*
X17610697Y-10409040D01*
X17610697Y-10409040D02*
X17601173Y-10399516D01*
X17601173Y-10399516D02*
X17610697Y-10389992D01*
X17610697Y-10389992D02*
X17610697Y-10409040D01*
X17734507Y-10294754D02*
X17715459Y-10285230D01*
X17715459Y-10285230D02*
X17705935Y-10275706D01*
X17705935Y-10275706D02*
X17696411Y-10256659D01*
X17696411Y-10256659D02*
X17696411Y-10247135D01*
X17696411Y-10247135D02*
X17705935Y-10228087D01*
X17705935Y-10228087D02*
X17715459Y-10218564D01*
X17715459Y-10218564D02*
X17734507Y-10209040D01*
X17734507Y-10209040D02*
X17772602Y-10209040D01*
X17772602Y-10209040D02*
X17791649Y-10218564D01*
X17791649Y-10218564D02*
X17801173Y-10228087D01*
X17801173Y-10228087D02*
X17810697Y-10247135D01*
X17810697Y-10247135D02*
X17810697Y-10256659D01*
X17810697Y-10256659D02*
X17801173Y-10275706D01*
X17801173Y-10275706D02*
X17791649Y-10285230D01*
X17791649Y-10285230D02*
X17772602Y-10294754D01*
X17772602Y-10294754D02*
X17734507Y-10294754D01*
X17734507Y-10294754D02*
X17715459Y-10304278D01*
X17715459Y-10304278D02*
X17705935Y-10313802D01*
X17705935Y-10313802D02*
X17696411Y-10332849D01*
X17696411Y-10332849D02*
X17696411Y-10370945D01*
X17696411Y-10370945D02*
X17705935Y-10389992D01*
X17705935Y-10389992D02*
X17715459Y-10399516D01*
X17715459Y-10399516D02*
X17734507Y-10409040D01*
X17734507Y-10409040D02*
X17772602Y-10409040D01*
X17772602Y-10409040D02*
X17791649Y-10399516D01*
X17791649Y-10399516D02*
X17801173Y-10389992D01*
X17801173Y-10389992D02*
X17810697Y-10370945D01*
X17810697Y-10370945D02*
X17810697Y-10332849D01*
X17810697Y-10332849D02*
X17801173Y-10313802D01*
X17801173Y-10313802D02*
X17791649Y-10304278D01*
X17791649Y-10304278D02*
X17772602Y-10294754D01*
X17934507Y-10209040D02*
X17953554Y-10209040D01*
X17953554Y-10209040D02*
X17972602Y-10218564D01*
X17972602Y-10218564D02*
X17982126Y-10228087D01*
X17982126Y-10228087D02*
X17991649Y-10247135D01*
X17991649Y-10247135D02*
X18001173Y-10285230D01*
X18001173Y-10285230D02*
X18001173Y-10332849D01*
X18001173Y-10332849D02*
X17991649Y-10370945D01*
X17991649Y-10370945D02*
X17982126Y-10389992D01*
X17982126Y-10389992D02*
X17972602Y-10399516D01*
X17972602Y-10399516D02*
X17953554Y-10409040D01*
X17953554Y-10409040D02*
X17934507Y-10409040D01*
X17934507Y-10409040D02*
X17915459Y-10399516D01*
X17915459Y-10399516D02*
X17905935Y-10389992D01*
X17905935Y-10389992D02*
X17896411Y-10370945D01*
X17896411Y-10370945D02*
X17886888Y-10332849D01*
X17886888Y-10332849D02*
X17886888Y-10285230D01*
X17886888Y-10285230D02*
X17896411Y-10247135D01*
X17896411Y-10247135D02*
X17905935Y-10228087D01*
X17905935Y-10228087D02*
X17915459Y-10218564D01*
X17915459Y-10218564D02*
X17934507Y-10209040D01*
X18124983Y-10209040D02*
X18144030Y-10209040D01*
X18144030Y-10209040D02*
X18163078Y-10218564D01*
X18163078Y-10218564D02*
X18172602Y-10228087D01*
X18172602Y-10228087D02*
X18182126Y-10247135D01*
X18182126Y-10247135D02*
X18191649Y-10285230D01*
X18191649Y-10285230D02*
X18191649Y-10332849D01*
X18191649Y-10332849D02*
X18182126Y-10370945D01*
X18182126Y-10370945D02*
X18172602Y-10389992D01*
X18172602Y-10389992D02*
X18163078Y-10399516D01*
X18163078Y-10399516D02*
X18144030Y-10409040D01*
X18144030Y-10409040D02*
X18124983Y-10409040D01*
X18124983Y-10409040D02*
X18105935Y-10399516D01*
X18105935Y-10399516D02*
X18096411Y-10389992D01*
X18096411Y-10389992D02*
X18086888Y-10370945D01*
X18086888Y-10370945D02*
X18077364Y-10332849D01*
X18077364Y-10332849D02*
X18077364Y-10285230D01*
X18077364Y-10285230D02*
X18086888Y-10247135D01*
X18086888Y-10247135D02*
X18096411Y-10228087D01*
X18096411Y-10228087D02*
X18105935Y-10218564D01*
X18105935Y-10218564D02*
X18124983Y-10209040D01*
X18277364Y-10409040D02*
X18277364Y-10275706D01*
X18277364Y-10294754D02*
X18286888Y-10285230D01*
X18286888Y-10285230D02*
X18305935Y-10275706D01*
X18305935Y-10275706D02*
X18334507Y-10275706D01*
X18334507Y-10275706D02*
X18353554Y-10285230D01*
X18353554Y-10285230D02*
X18363078Y-10304278D01*
X18363078Y-10304278D02*
X18363078Y-10409040D01*
X18363078Y-10304278D02*
X18372602Y-10285230D01*
X18372602Y-10285230D02*
X18391649Y-10275706D01*
X18391649Y-10275706D02*
X18420221Y-10275706D01*
X18420221Y-10275706D02*
X18439269Y-10285230D01*
X18439269Y-10285230D02*
X18448792Y-10304278D01*
X18448792Y-10304278D02*
X18448792Y-10409040D01*
X18544030Y-10409040D02*
X18544030Y-10275706D01*
X18544030Y-10294754D02*
X18553554Y-10285230D01*
X18553554Y-10285230D02*
X18572602Y-10275706D01*
X18572602Y-10275706D02*
X18601173Y-10275706D01*
X18601173Y-10275706D02*
X18620221Y-10285230D01*
X18620221Y-10285230D02*
X18629745Y-10304278D01*
X18629745Y-10304278D02*
X18629745Y-10409040D01*
X18629745Y-10304278D02*
X18639269Y-10285230D01*
X18639269Y-10285230D02*
X18658316Y-10275706D01*
X18658316Y-10275706D02*
X18686888Y-10275706D01*
X18686888Y-10275706D02*
X18705935Y-10285230D01*
X18705935Y-10285230D02*
X18715459Y-10304278D01*
X18715459Y-10304278D02*
X18715459Y-10409040D01*
X19105935Y-10199516D02*
X18934507Y-10456659D01*
X19363078Y-10209040D02*
X19382126Y-10209040D01*
X19382126Y-10209040D02*
X19401173Y-10218564D01*
X19401173Y-10218564D02*
X19410697Y-10228087D01*
X19410697Y-10228087D02*
X19420221Y-10247135D01*
X19420221Y-10247135D02*
X19429745Y-10285230D01*
X19429745Y-10285230D02*
X19429745Y-10332849D01*
X19429745Y-10332849D02*
X19420221Y-10370945D01*
X19420221Y-10370945D02*
X19410697Y-10389992D01*
X19410697Y-10389992D02*
X19401173Y-10399516D01*
X19401173Y-10399516D02*
X19382126Y-10409040D01*
X19382126Y-10409040D02*
X19363078Y-10409040D01*
X19363078Y-10409040D02*
X19344031Y-10399516D01*
X19344031Y-10399516D02*
X19334507Y-10389992D01*
X19334507Y-10389992D02*
X19324983Y-10370945D01*
X19324983Y-10370945D02*
X19315459Y-10332849D01*
X19315459Y-10332849D02*
X19315459Y-10285230D01*
X19315459Y-10285230D02*
X19324983Y-10247135D01*
X19324983Y-10247135D02*
X19334507Y-10228087D01*
X19334507Y-10228087D02*
X19344031Y-10218564D01*
X19344031Y-10218564D02*
X19363078Y-10209040D01*
X19515459Y-10389992D02*
X19524983Y-10399516D01*
X19524983Y-10399516D02*
X19515459Y-10409040D01*
X19515459Y-10409040D02*
X19505935Y-10399516D01*
X19505935Y-10399516D02*
X19515459Y-10389992D01*
X19515459Y-10389992D02*
X19515459Y-10409040D01*
X19648792Y-10209040D02*
X19667840Y-10209040D01*
X19667840Y-10209040D02*
X19686888Y-10218564D01*
X19686888Y-10218564D02*
X19696412Y-10228087D01*
X19696412Y-10228087D02*
X19705935Y-10247135D01*
X19705935Y-10247135D02*
X19715459Y-10285230D01*
X19715459Y-10285230D02*
X19715459Y-10332849D01*
X19715459Y-10332849D02*
X19705935Y-10370945D01*
X19705935Y-10370945D02*
X19696412Y-10389992D01*
X19696412Y-10389992D02*
X19686888Y-10399516D01*
X19686888Y-10399516D02*
X19667840Y-10409040D01*
X19667840Y-10409040D02*
X19648792Y-10409040D01*
X19648792Y-10409040D02*
X19629745Y-10399516D01*
X19629745Y-10399516D02*
X19620221Y-10389992D01*
X19620221Y-10389992D02*
X19610697Y-10370945D01*
X19610697Y-10370945D02*
X19601173Y-10332849D01*
X19601173Y-10332849D02*
X19601173Y-10285230D01*
X19601173Y-10285230D02*
X19610697Y-10247135D01*
X19610697Y-10247135D02*
X19620221Y-10228087D01*
X19620221Y-10228087D02*
X19629745Y-10218564D01*
X19629745Y-10218564D02*
X19648792Y-10209040D01*
X19782126Y-10209040D02*
X19905935Y-10209040D01*
X19905935Y-10209040D02*
X19839269Y-10285230D01*
X19839269Y-10285230D02*
X19867840Y-10285230D01*
X19867840Y-10285230D02*
X19886888Y-10294754D01*
X19886888Y-10294754D02*
X19896412Y-10304278D01*
X19896412Y-10304278D02*
X19905935Y-10323326D01*
X19905935Y-10323326D02*
X19905935Y-10370945D01*
X19905935Y-10370945D02*
X19896412Y-10389992D01*
X19896412Y-10389992D02*
X19886888Y-10399516D01*
X19886888Y-10399516D02*
X19867840Y-10409040D01*
X19867840Y-10409040D02*
X19810697Y-10409040D01*
X19810697Y-10409040D02*
X19791650Y-10399516D01*
X19791650Y-10399516D02*
X19782126Y-10389992D01*
X20096412Y-10409040D02*
X19982126Y-10409040D01*
X20039269Y-10409040D02*
X20039269Y-10209040D01*
X20039269Y-10209040D02*
X20020221Y-10237611D01*
X20020221Y-10237611D02*
X20001173Y-10256659D01*
X20001173Y-10256659D02*
X19982126Y-10266183D01*
X20277364Y-10209040D02*
X20182126Y-10209040D01*
X20182126Y-10209040D02*
X20172602Y-10304278D01*
X20172602Y-10304278D02*
X20182126Y-10294754D01*
X20182126Y-10294754D02*
X20201173Y-10285230D01*
X20201173Y-10285230D02*
X20248793Y-10285230D01*
X20248793Y-10285230D02*
X20267840Y-10294754D01*
X20267840Y-10294754D02*
X20277364Y-10304278D01*
X20277364Y-10304278D02*
X20286888Y-10323326D01*
X20286888Y-10323326D02*
X20286888Y-10370945D01*
X20286888Y-10370945D02*
X20277364Y-10389992D01*
X20277364Y-10389992D02*
X20267840Y-10399516D01*
X20267840Y-10399516D02*
X20248793Y-10409040D01*
X20248793Y-10409040D02*
X20201173Y-10409040D01*
X20201173Y-10409040D02*
X20182126Y-10399516D01*
X20182126Y-10399516D02*
X20172602Y-10389992D01*
X20363078Y-10209040D02*
X20363078Y-10247135D01*
X20439269Y-10209040D02*
X20439269Y-10247135D01*
X20734507Y-10485230D02*
X20724983Y-10475706D01*
X20724983Y-10475706D02*
X20705935Y-10447135D01*
X20705935Y-10447135D02*
X20696412Y-10428087D01*
X20696412Y-10428087D02*
X20686888Y-10399516D01*
X20686888Y-10399516D02*
X20677364Y-10351897D01*
X20677364Y-10351897D02*
X20677364Y-10313802D01*
X20677364Y-10313802D02*
X20686888Y-10266183D01*
X20686888Y-10266183D02*
X20696412Y-10237611D01*
X20696412Y-10237611D02*
X20705935Y-10218564D01*
X20705935Y-10218564D02*
X20724983Y-10189992D01*
X20724983Y-10189992D02*
X20734507Y-10180468D01*
X20896412Y-10275706D02*
X20896412Y-10409040D01*
X20848793Y-10199516D02*
X20801174Y-10342373D01*
X20801174Y-10342373D02*
X20924983Y-10342373D01*
X21153555Y-10409040D02*
X21153555Y-10209040D01*
X21239269Y-10409040D02*
X21239269Y-10304278D01*
X21239269Y-10304278D02*
X21229745Y-10285230D01*
X21229745Y-10285230D02*
X21210697Y-10275706D01*
X21210697Y-10275706D02*
X21182126Y-10275706D01*
X21182126Y-10275706D02*
X21163078Y-10285230D01*
X21163078Y-10285230D02*
X21153555Y-10294754D01*
X21363078Y-10409040D02*
X21344031Y-10399516D01*
X21344031Y-10399516D02*
X21334507Y-10389992D01*
X21334507Y-10389992D02*
X21324983Y-10370945D01*
X21324983Y-10370945D02*
X21324983Y-10313802D01*
X21324983Y-10313802D02*
X21334507Y-10294754D01*
X21334507Y-10294754D02*
X21344031Y-10285230D01*
X21344031Y-10285230D02*
X21363078Y-10275706D01*
X21363078Y-10275706D02*
X21391650Y-10275706D01*
X21391650Y-10275706D02*
X21410697Y-10285230D01*
X21410697Y-10285230D02*
X21420221Y-10294754D01*
X21420221Y-10294754D02*
X21429745Y-10313802D01*
X21429745Y-10313802D02*
X21429745Y-10370945D01*
X21429745Y-10370945D02*
X21420221Y-10389992D01*
X21420221Y-10389992D02*
X21410697Y-10399516D01*
X21410697Y-10399516D02*
X21391650Y-10409040D01*
X21391650Y-10409040D02*
X21363078Y-10409040D01*
X21544031Y-10409040D02*
X21524983Y-10399516D01*
X21524983Y-10399516D02*
X21515459Y-10380468D01*
X21515459Y-10380468D02*
X21515459Y-10209040D01*
X21696412Y-10399516D02*
X21677364Y-10409040D01*
X21677364Y-10409040D02*
X21639269Y-10409040D01*
X21639269Y-10409040D02*
X21620221Y-10399516D01*
X21620221Y-10399516D02*
X21610697Y-10380468D01*
X21610697Y-10380468D02*
X21610697Y-10304278D01*
X21610697Y-10304278D02*
X21620221Y-10285230D01*
X21620221Y-10285230D02*
X21639269Y-10275706D01*
X21639269Y-10275706D02*
X21677364Y-10275706D01*
X21677364Y-10275706D02*
X21696412Y-10285230D01*
X21696412Y-10285230D02*
X21705936Y-10304278D01*
X21705936Y-10304278D02*
X21705936Y-10323326D01*
X21705936Y-10323326D02*
X21610697Y-10342373D01*
X21782126Y-10399516D02*
X21801174Y-10409040D01*
X21801174Y-10409040D02*
X21839269Y-10409040D01*
X21839269Y-10409040D02*
X21858317Y-10399516D01*
X21858317Y-10399516D02*
X21867840Y-10380468D01*
X21867840Y-10380468D02*
X21867840Y-10370945D01*
X21867840Y-10370945D02*
X21858317Y-10351897D01*
X21858317Y-10351897D02*
X21839269Y-10342373D01*
X21839269Y-10342373D02*
X21810697Y-10342373D01*
X21810697Y-10342373D02*
X21791650Y-10332849D01*
X21791650Y-10332849D02*
X21782126Y-10313802D01*
X21782126Y-10313802D02*
X21782126Y-10304278D01*
X21782126Y-10304278D02*
X21791650Y-10285230D01*
X21791650Y-10285230D02*
X21810697Y-10275706D01*
X21810697Y-10275706D02*
X21839269Y-10275706D01*
X21839269Y-10275706D02*
X21858317Y-10285230D01*
X21934507Y-10485230D02*
X21944031Y-10475706D01*
X21944031Y-10475706D02*
X21963078Y-10447135D01*
X21963078Y-10447135D02*
X21972602Y-10428087D01*
X21972602Y-10428087D02*
X21982126Y-10399516D01*
X21982126Y-10399516D02*
X21991650Y-10351897D01*
X21991650Y-10351897D02*
X21991650Y-10313802D01*
X21991650Y-10313802D02*
X21982126Y-10266183D01*
X21982126Y-10266183D02*
X21972602Y-10237611D01*
X21972602Y-10237611D02*
X21963078Y-10218564D01*
X21963078Y-10218564D02*
X21944031Y-10189992D01*
X21944031Y-10189992D02*
X21934507Y-10180468D01*
D12*
X17109444Y-10531556D02*
X17109444Y-10631556D01*
X17059444Y-10581556D02*
X17159444Y-10581556D01*
D11*
X17524983Y-10673040D02*
X17410697Y-10673040D01*
X17467840Y-10673040D02*
X17467840Y-10473040D01*
X17467840Y-10473040D02*
X17448792Y-10501611D01*
X17448792Y-10501611D02*
X17429745Y-10520659D01*
X17429745Y-10520659D02*
X17410697Y-10530183D01*
X17610697Y-10653992D02*
X17620221Y-10663516D01*
X17620221Y-10663516D02*
X17610697Y-10673040D01*
X17610697Y-10673040D02*
X17601173Y-10663516D01*
X17601173Y-10663516D02*
X17610697Y-10653992D01*
X17610697Y-10653992D02*
X17610697Y-10673040D01*
X17744030Y-10473040D02*
X17763078Y-10473040D01*
X17763078Y-10473040D02*
X17782126Y-10482564D01*
X17782126Y-10482564D02*
X17791649Y-10492087D01*
X17791649Y-10492087D02*
X17801173Y-10511135D01*
X17801173Y-10511135D02*
X17810697Y-10549230D01*
X17810697Y-10549230D02*
X17810697Y-10596849D01*
X17810697Y-10596849D02*
X17801173Y-10634945D01*
X17801173Y-10634945D02*
X17791649Y-10653992D01*
X17791649Y-10653992D02*
X17782126Y-10663516D01*
X17782126Y-10663516D02*
X17763078Y-10673040D01*
X17763078Y-10673040D02*
X17744030Y-10673040D01*
X17744030Y-10673040D02*
X17724983Y-10663516D01*
X17724983Y-10663516D02*
X17715459Y-10653992D01*
X17715459Y-10653992D02*
X17705935Y-10634945D01*
X17705935Y-10634945D02*
X17696411Y-10596849D01*
X17696411Y-10596849D02*
X17696411Y-10549230D01*
X17696411Y-10549230D02*
X17705935Y-10511135D01*
X17705935Y-10511135D02*
X17715459Y-10492087D01*
X17715459Y-10492087D02*
X17724983Y-10482564D01*
X17724983Y-10482564D02*
X17744030Y-10473040D01*
X17934507Y-10473040D02*
X17953554Y-10473040D01*
X17953554Y-10473040D02*
X17972602Y-10482564D01*
X17972602Y-10482564D02*
X17982126Y-10492087D01*
X17982126Y-10492087D02*
X17991649Y-10511135D01*
X17991649Y-10511135D02*
X18001173Y-10549230D01*
X18001173Y-10549230D02*
X18001173Y-10596849D01*
X18001173Y-10596849D02*
X17991649Y-10634945D01*
X17991649Y-10634945D02*
X17982126Y-10653992D01*
X17982126Y-10653992D02*
X17972602Y-10663516D01*
X17972602Y-10663516D02*
X17953554Y-10673040D01*
X17953554Y-10673040D02*
X17934507Y-10673040D01*
X17934507Y-10673040D02*
X17915459Y-10663516D01*
X17915459Y-10663516D02*
X17905935Y-10653992D01*
X17905935Y-10653992D02*
X17896411Y-10634945D01*
X17896411Y-10634945D02*
X17886888Y-10596849D01*
X17886888Y-10596849D02*
X17886888Y-10549230D01*
X17886888Y-10549230D02*
X17896411Y-10511135D01*
X17896411Y-10511135D02*
X17905935Y-10492087D01*
X17905935Y-10492087D02*
X17915459Y-10482564D01*
X17915459Y-10482564D02*
X17934507Y-10473040D01*
X18124983Y-10473040D02*
X18144030Y-10473040D01*
X18144030Y-10473040D02*
X18163078Y-10482564D01*
X18163078Y-10482564D02*
X18172602Y-10492087D01*
X18172602Y-10492087D02*
X18182126Y-10511135D01*
X18182126Y-10511135D02*
X18191649Y-10549230D01*
X18191649Y-10549230D02*
X18191649Y-10596849D01*
X18191649Y-10596849D02*
X18182126Y-10634945D01*
X18182126Y-10634945D02*
X18172602Y-10653992D01*
X18172602Y-10653992D02*
X18163078Y-10663516D01*
X18163078Y-10663516D02*
X18144030Y-10673040D01*
X18144030Y-10673040D02*
X18124983Y-10673040D01*
X18124983Y-10673040D02*
X18105935Y-10663516D01*
X18105935Y-10663516D02*
X18096411Y-10653992D01*
X18096411Y-10653992D02*
X18086888Y-10634945D01*
X18086888Y-10634945D02*
X18077364Y-10596849D01*
X18077364Y-10596849D02*
X18077364Y-10549230D01*
X18077364Y-10549230D02*
X18086888Y-10511135D01*
X18086888Y-10511135D02*
X18096411Y-10492087D01*
X18096411Y-10492087D02*
X18105935Y-10482564D01*
X18105935Y-10482564D02*
X18124983Y-10473040D01*
X18277364Y-10673040D02*
X18277364Y-10539706D01*
X18277364Y-10558754D02*
X18286888Y-10549230D01*
X18286888Y-10549230D02*
X18305935Y-10539706D01*
X18305935Y-10539706D02*
X18334507Y-10539706D01*
X18334507Y-10539706D02*
X18353554Y-10549230D01*
X18353554Y-10549230D02*
X18363078Y-10568278D01*
X18363078Y-10568278D02*
X18363078Y-10673040D01*
X18363078Y-10568278D02*
X18372602Y-10549230D01*
X18372602Y-10549230D02*
X18391649Y-10539706D01*
X18391649Y-10539706D02*
X18420221Y-10539706D01*
X18420221Y-10539706D02*
X18439269Y-10549230D01*
X18439269Y-10549230D02*
X18448792Y-10568278D01*
X18448792Y-10568278D02*
X18448792Y-10673040D01*
X18544030Y-10673040D02*
X18544030Y-10539706D01*
X18544030Y-10558754D02*
X18553554Y-10549230D01*
X18553554Y-10549230D02*
X18572602Y-10539706D01*
X18572602Y-10539706D02*
X18601173Y-10539706D01*
X18601173Y-10539706D02*
X18620221Y-10549230D01*
X18620221Y-10549230D02*
X18629745Y-10568278D01*
X18629745Y-10568278D02*
X18629745Y-10673040D01*
X18629745Y-10568278D02*
X18639269Y-10549230D01*
X18639269Y-10549230D02*
X18658316Y-10539706D01*
X18658316Y-10539706D02*
X18686888Y-10539706D01*
X18686888Y-10539706D02*
X18705935Y-10549230D01*
X18705935Y-10549230D02*
X18715459Y-10568278D01*
X18715459Y-10568278D02*
X18715459Y-10673040D01*
X19105935Y-10463516D02*
X18934507Y-10720659D01*
X19363078Y-10473040D02*
X19382126Y-10473040D01*
X19382126Y-10473040D02*
X19401173Y-10482564D01*
X19401173Y-10482564D02*
X19410697Y-10492087D01*
X19410697Y-10492087D02*
X19420221Y-10511135D01*
X19420221Y-10511135D02*
X19429745Y-10549230D01*
X19429745Y-10549230D02*
X19429745Y-10596849D01*
X19429745Y-10596849D02*
X19420221Y-10634945D01*
X19420221Y-10634945D02*
X19410697Y-10653992D01*
X19410697Y-10653992D02*
X19401173Y-10663516D01*
X19401173Y-10663516D02*
X19382126Y-10673040D01*
X19382126Y-10673040D02*
X19363078Y-10673040D01*
X19363078Y-10673040D02*
X19344031Y-10663516D01*
X19344031Y-10663516D02*
X19334507Y-10653992D01*
X19334507Y-10653992D02*
X19324983Y-10634945D01*
X19324983Y-10634945D02*
X19315459Y-10596849D01*
X19315459Y-10596849D02*
X19315459Y-10549230D01*
X19315459Y-10549230D02*
X19324983Y-10511135D01*
X19324983Y-10511135D02*
X19334507Y-10492087D01*
X19334507Y-10492087D02*
X19344031Y-10482564D01*
X19344031Y-10482564D02*
X19363078Y-10473040D01*
X19515459Y-10653992D02*
X19524983Y-10663516D01*
X19524983Y-10663516D02*
X19515459Y-10673040D01*
X19515459Y-10673040D02*
X19505935Y-10663516D01*
X19505935Y-10663516D02*
X19515459Y-10653992D01*
X19515459Y-10653992D02*
X19515459Y-10673040D01*
X19648792Y-10473040D02*
X19667840Y-10473040D01*
X19667840Y-10473040D02*
X19686888Y-10482564D01*
X19686888Y-10482564D02*
X19696412Y-10492087D01*
X19696412Y-10492087D02*
X19705935Y-10511135D01*
X19705935Y-10511135D02*
X19715459Y-10549230D01*
X19715459Y-10549230D02*
X19715459Y-10596849D01*
X19715459Y-10596849D02*
X19705935Y-10634945D01*
X19705935Y-10634945D02*
X19696412Y-10653992D01*
X19696412Y-10653992D02*
X19686888Y-10663516D01*
X19686888Y-10663516D02*
X19667840Y-10673040D01*
X19667840Y-10673040D02*
X19648792Y-10673040D01*
X19648792Y-10673040D02*
X19629745Y-10663516D01*
X19629745Y-10663516D02*
X19620221Y-10653992D01*
X19620221Y-10653992D02*
X19610697Y-10634945D01*
X19610697Y-10634945D02*
X19601173Y-10596849D01*
X19601173Y-10596849D02*
X19601173Y-10549230D01*
X19601173Y-10549230D02*
X19610697Y-10511135D01*
X19610697Y-10511135D02*
X19620221Y-10492087D01*
X19620221Y-10492087D02*
X19629745Y-10482564D01*
X19629745Y-10482564D02*
X19648792Y-10473040D01*
X19782126Y-10473040D02*
X19905935Y-10473040D01*
X19905935Y-10473040D02*
X19839269Y-10549230D01*
X19839269Y-10549230D02*
X19867840Y-10549230D01*
X19867840Y-10549230D02*
X19886888Y-10558754D01*
X19886888Y-10558754D02*
X19896412Y-10568278D01*
X19896412Y-10568278D02*
X19905935Y-10587326D01*
X19905935Y-10587326D02*
X19905935Y-10634945D01*
X19905935Y-10634945D02*
X19896412Y-10653992D01*
X19896412Y-10653992D02*
X19886888Y-10663516D01*
X19886888Y-10663516D02*
X19867840Y-10673040D01*
X19867840Y-10673040D02*
X19810697Y-10673040D01*
X19810697Y-10673040D02*
X19791650Y-10663516D01*
X19791650Y-10663516D02*
X19782126Y-10653992D01*
X20001173Y-10673040D02*
X20039269Y-10673040D01*
X20039269Y-10673040D02*
X20058316Y-10663516D01*
X20058316Y-10663516D02*
X20067840Y-10653992D01*
X20067840Y-10653992D02*
X20086888Y-10625421D01*
X20086888Y-10625421D02*
X20096412Y-10587326D01*
X20096412Y-10587326D02*
X20096412Y-10511135D01*
X20096412Y-10511135D02*
X20086888Y-10492087D01*
X20086888Y-10492087D02*
X20077364Y-10482564D01*
X20077364Y-10482564D02*
X20058316Y-10473040D01*
X20058316Y-10473040D02*
X20020221Y-10473040D01*
X20020221Y-10473040D02*
X20001173Y-10482564D01*
X20001173Y-10482564D02*
X19991650Y-10492087D01*
X19991650Y-10492087D02*
X19982126Y-10511135D01*
X19982126Y-10511135D02*
X19982126Y-10558754D01*
X19982126Y-10558754D02*
X19991650Y-10577802D01*
X19991650Y-10577802D02*
X20001173Y-10587326D01*
X20001173Y-10587326D02*
X20020221Y-10596849D01*
X20020221Y-10596849D02*
X20058316Y-10596849D01*
X20058316Y-10596849D02*
X20077364Y-10587326D01*
X20077364Y-10587326D02*
X20086888Y-10577802D01*
X20086888Y-10577802D02*
X20096412Y-10558754D01*
X20267840Y-10539706D02*
X20267840Y-10673040D01*
X20220221Y-10463516D02*
X20172602Y-10606373D01*
X20172602Y-10606373D02*
X20296412Y-10606373D01*
X20363078Y-10473040D02*
X20363078Y-10511135D01*
X20439269Y-10473040D02*
X20439269Y-10511135D01*
X20734507Y-10749230D02*
X20724983Y-10739706D01*
X20724983Y-10739706D02*
X20705935Y-10711135D01*
X20705935Y-10711135D02*
X20696412Y-10692087D01*
X20696412Y-10692087D02*
X20686888Y-10663516D01*
X20686888Y-10663516D02*
X20677364Y-10615897D01*
X20677364Y-10615897D02*
X20677364Y-10577802D01*
X20677364Y-10577802D02*
X20686888Y-10530183D01*
X20686888Y-10530183D02*
X20696412Y-10501611D01*
X20696412Y-10501611D02*
X20705935Y-10482564D01*
X20705935Y-10482564D02*
X20724983Y-10453992D01*
X20724983Y-10453992D02*
X20734507Y-10444468D01*
X20896412Y-10539706D02*
X20896412Y-10673040D01*
X20848793Y-10463516D02*
X20801174Y-10606373D01*
X20801174Y-10606373D02*
X20924983Y-10606373D01*
X21153555Y-10673040D02*
X21153555Y-10473040D01*
X21239269Y-10673040D02*
X21239269Y-10568278D01*
X21239269Y-10568278D02*
X21229745Y-10549230D01*
X21229745Y-10549230D02*
X21210697Y-10539706D01*
X21210697Y-10539706D02*
X21182126Y-10539706D01*
X21182126Y-10539706D02*
X21163078Y-10549230D01*
X21163078Y-10549230D02*
X21153555Y-10558754D01*
X21363078Y-10673040D02*
X21344031Y-10663516D01*
X21344031Y-10663516D02*
X21334507Y-10653992D01*
X21334507Y-10653992D02*
X21324983Y-10634945D01*
X21324983Y-10634945D02*
X21324983Y-10577802D01*
X21324983Y-10577802D02*
X21334507Y-10558754D01*
X21334507Y-10558754D02*
X21344031Y-10549230D01*
X21344031Y-10549230D02*
X21363078Y-10539706D01*
X21363078Y-10539706D02*
X21391650Y-10539706D01*
X21391650Y-10539706D02*
X21410697Y-10549230D01*
X21410697Y-10549230D02*
X21420221Y-10558754D01*
X21420221Y-10558754D02*
X21429745Y-10577802D01*
X21429745Y-10577802D02*
X21429745Y-10634945D01*
X21429745Y-10634945D02*
X21420221Y-10653992D01*
X21420221Y-10653992D02*
X21410697Y-10663516D01*
X21410697Y-10663516D02*
X21391650Y-10673040D01*
X21391650Y-10673040D02*
X21363078Y-10673040D01*
X21544031Y-10673040D02*
X21524983Y-10663516D01*
X21524983Y-10663516D02*
X21515459Y-10644468D01*
X21515459Y-10644468D02*
X21515459Y-10473040D01*
X21696412Y-10663516D02*
X21677364Y-10673040D01*
X21677364Y-10673040D02*
X21639269Y-10673040D01*
X21639269Y-10673040D02*
X21620221Y-10663516D01*
X21620221Y-10663516D02*
X21610697Y-10644468D01*
X21610697Y-10644468D02*
X21610697Y-10568278D01*
X21610697Y-10568278D02*
X21620221Y-10549230D01*
X21620221Y-10549230D02*
X21639269Y-10539706D01*
X21639269Y-10539706D02*
X21677364Y-10539706D01*
X21677364Y-10539706D02*
X21696412Y-10549230D01*
X21696412Y-10549230D02*
X21705936Y-10568278D01*
X21705936Y-10568278D02*
X21705936Y-10587326D01*
X21705936Y-10587326D02*
X21610697Y-10606373D01*
X21782126Y-10663516D02*
X21801174Y-10673040D01*
X21801174Y-10673040D02*
X21839269Y-10673040D01*
X21839269Y-10673040D02*
X21858317Y-10663516D01*
X21858317Y-10663516D02*
X21867840Y-10644468D01*
X21867840Y-10644468D02*
X21867840Y-10634945D01*
X21867840Y-10634945D02*
X21858317Y-10615897D01*
X21858317Y-10615897D02*
X21839269Y-10606373D01*
X21839269Y-10606373D02*
X21810697Y-10606373D01*
X21810697Y-10606373D02*
X21791650Y-10596849D01*
X21791650Y-10596849D02*
X21782126Y-10577802D01*
X21782126Y-10577802D02*
X21782126Y-10568278D01*
X21782126Y-10568278D02*
X21791650Y-10549230D01*
X21791650Y-10549230D02*
X21810697Y-10539706D01*
X21810697Y-10539706D02*
X21839269Y-10539706D01*
X21839269Y-10539706D02*
X21858317Y-10549230D01*
X21934507Y-10749230D02*
X21944031Y-10739706D01*
X21944031Y-10739706D02*
X21963078Y-10711135D01*
X21963078Y-10711135D02*
X21972602Y-10692087D01*
X21972602Y-10692087D02*
X21982126Y-10663516D01*
X21982126Y-10663516D02*
X21991650Y-10615897D01*
X21991650Y-10615897D02*
X21991650Y-10577802D01*
X21991650Y-10577802D02*
X21982126Y-10530183D01*
X21982126Y-10530183D02*
X21972602Y-10501611D01*
X21972602Y-10501611D02*
X21963078Y-10482564D01*
X21963078Y-10482564D02*
X21944031Y-10453992D01*
X21944031Y-10453992D02*
X21934507Y-10444468D01*
M02*
