%TF.GenerationSoftware,KiCad,Pcbnew,9.0.7*%
%TF.CreationDate,2026-05-10T22:03:56+02:00*%
%TF.ProjectId,SolarPowerSupply,536f6c61-7250-46f7-9765-72537570706c,rev?*%
%TF.SameCoordinates,Original*%
%TF.FileFunction,Copper,L1,Top*%
%TF.FilePolarity,Positive*%
%FSLAX46Y46*%
G04 Gerber Fmt 4.6, Leading zero omitted, Abs format (unit mm)*
G04 Created by KiCad (PCBNEW 9.0.7) date 2026-05-10 22:03:56*
%MOMM*%
%LPD*%
G01*
G04 APERTURE LIST*
G04 Aperture macros list*
%AMRoundRect*
0 Rectangle with rounded corners*
0 $1 Rounding radius*
0 $2 $3 $4 $5 $6 $7 $8 $9 X,Y pos of 4 corners*
0 Add a 4 corners polygon primitive as box body*
4,1,4,$2,$3,$4,$5,$6,$7,$8,$9,$2,$3,0*
0 Add four circle primitives for the rounded corners*
1,1,$1+$1,$2,$3*
1,1,$1+$1,$4,$5*
1,1,$1+$1,$6,$7*
1,1,$1+$1,$8,$9*
0 Add four rect primitives between the rounded corners*
20,1,$1+$1,$2,$3,$4,$5,0*
20,1,$1+$1,$4,$5,$6,$7,0*
20,1,$1+$1,$6,$7,$8,$9,0*
20,1,$1+$1,$8,$9,$2,$3,0*%
G04 Aperture macros list end*
%TA.AperFunction,SMDPad,CuDef*%
%ADD10R,1.181100X0.558800*%
%TD*%
%TA.AperFunction,SMDPad,CuDef*%
%ADD11RoundRect,0.250000X-1.000000X-0.650000X1.000000X-0.650000X1.000000X0.650000X-1.000000X0.650000X0*%
%TD*%
%TA.AperFunction,SMDPad,CuDef*%
%ADD12RoundRect,0.250000X-0.262500X-0.450000X0.262500X-0.450000X0.262500X0.450000X-0.262500X0.450000X0*%
%TD*%
%TA.AperFunction,SMDPad,CuDef*%
%ADD13RoundRect,0.250000X0.250000X0.475000X-0.250000X0.475000X-0.250000X-0.475000X0.250000X-0.475000X0*%
%TD*%
%TA.AperFunction,ComponentPad*%
%ADD14R,1.350000X1.350000*%
%TD*%
%TA.AperFunction,ComponentPad*%
%ADD15C,1.350000*%
%TD*%
%TA.AperFunction,SMDPad,CuDef*%
%ADD16RoundRect,0.250000X1.000000X0.650000X-1.000000X0.650000X-1.000000X-0.650000X1.000000X-0.650000X0*%
%TD*%
%TA.AperFunction,SMDPad,CuDef*%
%ADD17R,3.302000X2.667000*%
%TD*%
%TA.AperFunction,ComponentPad*%
%ADD18RoundRect,0.250000X-0.550000X-0.550000X0.550000X-0.550000X0.550000X0.550000X-0.550000X0.550000X0*%
%TD*%
%TA.AperFunction,ComponentPad*%
%ADD19C,1.600000*%
%TD*%
%TA.AperFunction,SMDPad,CuDef*%
%ADD20RoundRect,0.250000X-0.450000X0.262500X-0.450000X-0.262500X0.450000X-0.262500X0.450000X0.262500X0*%
%TD*%
%TA.AperFunction,SMDPad,CuDef*%
%ADD21RoundRect,0.150000X-0.587500X-0.150000X0.587500X-0.150000X0.587500X0.150000X-0.587500X0.150000X0*%
%TD*%
%TA.AperFunction,SMDPad,CuDef*%
%ADD22RoundRect,0.250000X0.262500X0.450000X-0.262500X0.450000X-0.262500X-0.450000X0.262500X-0.450000X0*%
%TD*%
%TA.AperFunction,SMDPad,CuDef*%
%ADD23RoundRect,0.250000X-0.250000X-0.475000X0.250000X-0.475000X0.250000X0.475000X-0.250000X0.475000X0*%
%TD*%
%TA.AperFunction,SMDPad,CuDef*%
%ADD24RoundRect,0.250000X-0.650000X0.325000X-0.650000X-0.325000X0.650000X-0.325000X0.650000X0.325000X0*%
%TD*%
%TA.AperFunction,ComponentPad*%
%ADD25R,1.700000X1.700000*%
%TD*%
%TA.AperFunction,ComponentPad*%
%ADD26C,1.700000*%
%TD*%
%TA.AperFunction,ViaPad*%
%ADD27C,0.600000*%
%TD*%
%TA.AperFunction,Conductor*%
%ADD28C,0.300000*%
%TD*%
%TA.AperFunction,Conductor*%
%ADD29C,0.500000*%
%TD*%
%TA.AperFunction,Conductor*%
%ADD30C,0.400000*%
%TD*%
%TA.AperFunction,Conductor*%
%ADD31C,0.200000*%
%TD*%
G04 APERTURE END LIST*
D10*
%TO.P,U1,1,SW*%
%TO.N,Net-(D1-A)*%
X192070000Y-83820000D03*
%TO.P,U1,2,GND*%
%TO.N,GNDD*%
X192070000Y-84770001D03*
%TO.P,U1,3,FB*%
%TO.N,Net-(U1-FB)*%
X192070000Y-85720002D03*
%TO.P,U1,4,SHDN*%
%TO.N,Net-(Q1-D)*%
X194800500Y-85720002D03*
%TO.P,U1,5,VIN*%
%TO.N,Net-(J3-Pin_1)*%
X194800500Y-83820000D03*
%TD*%
D11*
%TO.P,D1,1,K*%
%TO.N,/<NO NET>*%
X192367500Y-70490000D03*
%TO.P,D1,2,A*%
%TO.N,Net-(D1-A)*%
X196367500Y-70490000D03*
%TD*%
D12*
%TO.P,R4,1*%
%TO.N,/SOLAR_P*%
X180590000Y-91160000D03*
%TO.P,R4,2*%
%TO.N,GNDD*%
X182415000Y-91160000D03*
%TD*%
D13*
%TO.P,C3,1*%
%TO.N,/<NO NET>*%
X203982500Y-91170000D03*
%TO.P,C3,2*%
%TO.N,Net-(U1-FB)*%
X202082500Y-91170000D03*
%TD*%
D14*
%TO.P,J4,1,Pin_1*%
%TO.N,/SOLAR_P*%
X174840000Y-76770000D03*
D15*
%TO.P,J4,2,Pin_2*%
%TO.N,GNDD*%
X174840000Y-74770000D03*
%TD*%
D16*
%TO.P,D2,1,K*%
%TO.N,/BAT_P*%
X185550000Y-70450000D03*
%TO.P,D2,2,A*%
%TO.N,/SOLAR_P*%
X181550000Y-70450000D03*
%TD*%
D17*
%TO.P,L1,1,1*%
%TO.N,Net-(D1-A)*%
X203060000Y-73610000D03*
%TO.P,L1,2,2*%
%TO.N,Net-(J3-Pin_1)*%
X203060000Y-78740800D03*
%TD*%
D18*
%TO.P,J3,1,Pin_1*%
%TO.N,Net-(J3-Pin_1)*%
X181230000Y-77340000D03*
D19*
%TO.P,J3,2,Pin_2*%
%TO.N,/BAT_P*%
X188850000Y-77340000D03*
%TD*%
D20*
%TO.P,R3,1*%
%TO.N,Net-(J3-Pin_1)*%
X181220000Y-84597500D03*
%TO.P,R3,2*%
%TO.N,Net-(Q1-D)*%
X181220000Y-86422500D03*
%TD*%
D21*
%TO.P,Q1,1,G*%
%TO.N,/SOLAR_P*%
X186282500Y-84340000D03*
%TO.P,Q1,2,S*%
%TO.N,GNDD*%
X186282500Y-86240000D03*
%TO.P,Q1,3,D*%
%TO.N,Net-(Q1-D)*%
X188157500Y-85290000D03*
%TD*%
D22*
%TO.P,R2,1*%
%TO.N,Net-(U1-FB)*%
X191622500Y-91440000D03*
%TO.P,R2,2*%
%TO.N,GNDD*%
X189797500Y-91440000D03*
%TD*%
D23*
%TO.P,C1,1*%
%TO.N,Net-(J3-Pin_1)*%
X202570000Y-82550000D03*
%TO.P,C1,2*%
%TO.N,GNDD*%
X204470000Y-82550000D03*
%TD*%
D24*
%TO.P,C2,1*%
%TO.N,/<NO NET>*%
X193990000Y-75915000D03*
%TO.P,C2,2*%
%TO.N,GNDD*%
X193990000Y-78865000D03*
%TD*%
D22*
%TO.P,R1,1*%
%TO.N,/<NO NET>*%
X197422500Y-91430000D03*
%TO.P,R1,2*%
%TO.N,Net-(U1-FB)*%
X195597500Y-91430000D03*
%TD*%
D25*
%TO.P,J1,1,Pin_1*%
%TO.N,GNDD*%
X210525000Y-79705000D03*
D26*
%TO.P,J1,2,Pin_2*%
%TO.N,/<NO NET>*%
X210525000Y-82245000D03*
%TD*%
D25*
%TO.P,J2,1,Pin_1*%
%TO.N,GNDD*%
X175980000Y-87940000D03*
D26*
%TO.P,J2,2,Pin_2*%
%TO.N,/BAT_P*%
X175980000Y-85400000D03*
%TD*%
D27*
%TO.N,Net-(J3-Pin_1)*%
X196100000Y-81750000D03*
X184950000Y-81750000D03*
%TO.N,GNDD*%
X192500000Y-78850000D03*
X205500000Y-82500000D03*
X188750000Y-91450000D03*
X184950000Y-86250000D03*
X183450000Y-91150000D03*
X190800000Y-84750000D03*
%TD*%
D28*
%TO.N,Net-(J3-Pin_1)*%
X196130000Y-83820000D02*
X197709200Y-82240800D01*
X197709200Y-82240800D02*
X198950000Y-81000000D01*
X198950000Y-81000000D02*
X201050000Y-81000000D01*
X201050000Y-81000000D02*
X201250000Y-81000000D01*
D29*
X181220000Y-81280000D02*
X184080000Y-81280000D01*
X181220000Y-81280000D02*
X181220000Y-77320000D01*
D28*
X194800500Y-83820000D02*
X196130000Y-83820000D01*
D30*
X202570000Y-81180000D02*
X203050000Y-80700000D01*
D29*
X184480000Y-81280000D02*
X184950000Y-81750000D01*
D30*
X202570000Y-82550000D02*
X202570000Y-81180000D01*
D28*
X197150000Y-81750000D02*
X196100000Y-81750000D01*
D29*
X181220000Y-84597500D02*
X181220000Y-81280000D01*
D28*
X197640800Y-82240800D02*
X197150000Y-81750000D01*
X201250000Y-81000000D02*
X201500000Y-80750000D01*
D30*
X203050000Y-80700000D02*
X203050000Y-78950000D01*
D29*
X184080000Y-81280000D02*
X184480000Y-81280000D01*
D28*
X181220000Y-77320000D02*
X181200000Y-77300000D01*
X201500000Y-80750000D02*
X202900000Y-79350000D01*
X197709200Y-82240800D02*
X197640800Y-82240800D01*
%TO.N,GNDD*%
X192515000Y-78865000D02*
X192500000Y-78850000D01*
D30*
X182415000Y-91160000D02*
X183440000Y-91160000D01*
X184960000Y-86240000D02*
X184950000Y-86250000D01*
D28*
X193990000Y-78865000D02*
X192515000Y-78865000D01*
X192070000Y-84770001D02*
X190820001Y-84770001D01*
X190820001Y-84770001D02*
X190800000Y-84750000D01*
D30*
X204470000Y-82550000D02*
X205450000Y-82550000D01*
X183440000Y-91160000D02*
X183450000Y-91150000D01*
X189797500Y-91440000D02*
X188760000Y-91440000D01*
X188760000Y-91440000D02*
X188750000Y-91450000D01*
X205450000Y-82550000D02*
X205500000Y-82500000D01*
X186282500Y-86240000D02*
X184960000Y-86240000D01*
D29*
%TO.N,/<NO NET>*%
X192367500Y-69932500D02*
X193650000Y-68650000D01*
D28*
X190600000Y-70450000D02*
X192400000Y-70450000D01*
D29*
X212900000Y-75200000D02*
X212900000Y-79900000D01*
D28*
X189650000Y-71400000D02*
X190600000Y-70450000D01*
D29*
X205230000Y-91170000D02*
X205600000Y-90800000D01*
X200050000Y-93250000D02*
X201950000Y-93250000D01*
D28*
X189750000Y-73100000D02*
X189650000Y-73000000D01*
D29*
X193650000Y-68650000D02*
X206350000Y-68650000D01*
X192367500Y-70490000D02*
X192367500Y-69932500D01*
X206350000Y-68650000D02*
X212900000Y-75200000D01*
X212900000Y-79900000D02*
X210550000Y-82250000D01*
D28*
X193990000Y-75915000D02*
X192565000Y-75915000D01*
X192565000Y-75915000D02*
X189750000Y-73100000D01*
D29*
X205600000Y-90800000D02*
X210550000Y-85850000D01*
X203982500Y-91170000D02*
X205230000Y-91170000D01*
D28*
X189650000Y-73000000D02*
X189650000Y-71400000D01*
D29*
X198230000Y-91430000D02*
X200050000Y-93250000D01*
X201950000Y-93250000D02*
X204000000Y-91200000D01*
X210550000Y-85850000D02*
X210550000Y-82250000D01*
X197422500Y-91430000D02*
X198230000Y-91430000D01*
D28*
%TO.N,Net-(U1-FB)*%
X197550000Y-84750000D02*
X202100000Y-89300000D01*
D30*
X200312500Y-89400000D02*
X196300000Y-89400000D01*
D28*
X195650000Y-84750000D02*
X197550000Y-84750000D01*
X192829998Y-85720002D02*
X193600000Y-84950000D01*
X192070000Y-85720002D02*
X192829998Y-85720002D01*
X202100000Y-89300000D02*
X202150000Y-89350000D01*
D30*
X195597500Y-90102500D02*
X195597500Y-91430000D01*
D28*
X193600000Y-84950000D02*
X193800000Y-84750000D01*
D29*
X195590000Y-91440000D02*
X195600000Y-91450000D01*
D28*
X202150000Y-89350000D02*
X202150000Y-90950000D01*
D30*
X196300000Y-89400000D02*
X195597500Y-90102500D01*
D29*
X191622500Y-91440000D02*
X195590000Y-91440000D01*
D30*
X202082500Y-91170000D02*
X200312500Y-89400000D01*
D28*
X193800000Y-84750000D02*
X195650000Y-84750000D01*
%TO.N,Net-(D1-A)*%
X198800000Y-72450000D02*
X198800000Y-71350000D01*
X195950000Y-79250000D02*
X195950000Y-75300000D01*
D30*
X202600000Y-70850000D02*
X201700000Y-69950000D01*
D28*
X192070000Y-83130000D02*
X195950000Y-79250000D01*
X192070000Y-83820000D02*
X192070000Y-83130000D01*
X198450000Y-72800000D02*
X198800000Y-72450000D01*
X195950000Y-75300000D02*
X198450000Y-72800000D01*
X198250000Y-70800000D02*
X196500000Y-70800000D01*
D30*
X203060000Y-73610000D02*
X203060000Y-71310000D01*
X203060000Y-71310000D02*
X202600000Y-70850000D01*
D28*
X198800000Y-71350000D02*
X198250000Y-70800000D01*
D30*
X201700000Y-69950000D02*
X196450000Y-69950000D01*
D29*
%TO.N,/BAT_P*%
X181800000Y-73200000D02*
X184800000Y-73200000D01*
X185500000Y-72500000D02*
X185500000Y-70450000D01*
X188850000Y-77340000D02*
X188850000Y-75850000D01*
X179000000Y-76000000D02*
X181800000Y-73200000D01*
X184800000Y-73200000D02*
X185500000Y-72500000D01*
X188850000Y-75850000D02*
X185500000Y-72500000D01*
X175980000Y-85400000D02*
X178980000Y-82400000D01*
X179000000Y-82400000D02*
X179000000Y-76000000D01*
X178980000Y-82400000D02*
X179000000Y-82400000D01*
D28*
%TO.N,/SOLAR_P*%
X179100000Y-87400000D02*
X178400000Y-86700000D01*
X183660000Y-84340000D02*
X182500000Y-85500000D01*
X174800000Y-76810000D02*
X174800000Y-84823529D01*
X179100000Y-89250000D02*
X179100000Y-87400000D01*
D29*
X181550000Y-70450000D02*
X179850000Y-70450000D01*
D28*
X186282500Y-84340000D02*
X183660000Y-84340000D01*
X174779000Y-84844529D02*
X174779000Y-86329000D01*
X176478471Y-86600000D02*
X178300000Y-86600000D01*
D29*
X179850000Y-70450000D02*
X179000000Y-71300000D01*
D28*
X180590000Y-90740000D02*
X179100000Y-89250000D01*
X174779000Y-86329000D02*
X175051000Y-86601000D01*
X182500000Y-85500000D02*
X179600000Y-85500000D01*
X178300000Y-86600000D02*
X178400000Y-86700000D01*
D29*
X177600000Y-75350000D02*
X176200000Y-76750000D01*
D31*
X174840000Y-76770000D02*
X174829000Y-76781000D01*
D28*
X174800000Y-84823529D02*
X174779000Y-84844529D01*
D29*
X176200000Y-76750000D02*
X174950000Y-76750000D01*
D28*
X179600000Y-85500000D02*
X178400000Y-86700000D01*
D31*
X180590000Y-91160000D02*
X180590000Y-90740000D01*
D29*
X179000000Y-71300000D02*
X179000000Y-73950000D01*
D31*
X180550000Y-90700000D02*
X180550000Y-91200000D01*
D28*
X176477471Y-86601000D02*
X175051000Y-86601000D01*
D29*
X179000000Y-73950000D02*
X177600000Y-75350000D01*
D28*
X174829000Y-76781000D02*
X174800000Y-76810000D01*
X176477471Y-86601000D02*
X176478471Y-86600000D01*
%TO.N,Net-(Q1-D)*%
X189900000Y-86500000D02*
X189900000Y-85800000D01*
X188500000Y-87900000D02*
X189355600Y-87044400D01*
X182697500Y-87900000D02*
X188500000Y-87900000D01*
D31*
X188150000Y-85350000D02*
X188200000Y-85350000D01*
X182650000Y-87852500D02*
X182697500Y-87900000D01*
D28*
X191600000Y-88050000D02*
X193850000Y-85800000D01*
D31*
X182650000Y-87852500D02*
X182650000Y-87900000D01*
D28*
X189450000Y-85350000D02*
X188150000Y-85350000D01*
X181220000Y-86422500D02*
X182650000Y-87852500D01*
X193850000Y-85800000D02*
X193900000Y-85750000D01*
X190350000Y-88050000D02*
X191600000Y-88050000D01*
X189355600Y-87055600D02*
X190350000Y-88050000D01*
X189355600Y-87044400D02*
X189355600Y-87055600D01*
X189900000Y-85800000D02*
X189450000Y-85350000D01*
X189355600Y-87044400D02*
X189900000Y-86500000D01*
X193900000Y-85750000D02*
X194850000Y-85750000D01*
%TD*%
M02*
